<svg xmlns="http://www.w3.org/2000/svg" xmlns:xlink="http://www.w3.org/1999/xlink" width="607.7" height="405.133" viewBox="0 0 607.7 405.133">
  <defs>
    <clipPath id="clip-path">
      <path id="path16" d="M0-666.665H607.7v405.133H0Z" transform="translate(0 666.665)"/>
    </clipPath>
    <clipPath id="clip-path-4">
      <path id="path152" d="M240.435-506.325H531.556v242.389H240.435Z" transform="translate(-240.435 506.325)"/>
    </clipPath>
    <clipPath id="clip-path-5">
      <path id="path172" d="M718.62-138.8h27.961v27.961H718.62Z" transform="translate(-718.62 138.798)"/>
    </clipPath>
    <clipPath id="clip-path-7">
      <path id="path704" d="M0-666.665H607.7v405.133H0Z" transform="translate(0 666.665)" fill="#e62e38"/>
    </clipPath>
    <clipPath id="clip-path-8">
      <path id="path752" d="M876.179-365.239H898.4v25.551h-22.22Z" transform="translate(-876.179 365.239)"/>
    </clipPath>
    <clipPath id="clip-path-9">
      <path id="path772" d="M848.174-352.918h10.868v19.933H848.174Z" transform="translate(-848.174 352.918)"/>
    </clipPath>
    <clipPath id="clip-path-10">
      <path id="path796" d="M609.384-184.793h31.54v14.548h-31.54Z" transform="translate(-609.384 184.793)"/>
    </clipPath>
    <clipPath id="clip-path-11">
      <path id="path820" d="M257.909-341.546h21.063v14.355H257.909Z" transform="translate(-257.909 341.546)"/>
    </clipPath>
    <clipPath id="clip-path-12">
      <path id="path852" d="M839.6-279.614h14.534v17.279H839.6Z" transform="translate(-839.603 279.614)"/>
    </clipPath>
  </defs>
  <g id="Group_117375" data-name="Group 117375" transform="translate(-353.75 -100)">
    <g id="g12" transform="translate(353.75 100)">
      <g id="g14" clip-path="url(#clip-path)">
        <g id="g20" transform="translate(378.386 357.952)">
          <path id="path22" d="M0-1.092A13.744,13.744,0,0,1,12.816-1.3,13.744,13.744,0,0,1,20.027,9.3C11.845,9.3,3.784,7.393,0-1.092" transform="translate(0 2.785)" fill="#fff"/>
        </g>
        <g id="g24" transform="translate(387.921 333.063)">
          <path id="path26" d="M0-11.749a17.785,17.785,0,0,0,16.326-2.94,17.788,17.788,0,0,0,6.506-15.26C12.441-27.911,2.683-23.469,0-11.749" transform="translate(0 29.948)" fill="#fff"/>
        </g>
        <g id="g28" transform="translate(352.298 342.385)">
          <path id="path30" d="M0-14.668a2.611,2.611,0,0,1,.512-.2l1.493-.5c1.3-.422,3.181-1.036,5.49-1.84,4.621-1.592,10.966-3.917,17.8-6.895,3.414-1.5,6.623-3.023,9.506-4.482,2.869-1.483,5.41-2.9,7.493-4.173a49.759,49.759,0,0,0,4.76-3.269c1.074-.84,1.6-1.39,1.633-1.354a2.675,2.675,0,0,1-.37.406,12.673,12.673,0,0,1-1.158,1.074,42.962,42.962,0,0,1-4.706,3.4c-2.07,1.312-4.606,2.759-7.473,4.265-2.88,1.481-6.094,3.019-9.515,4.522-6.852,2.985-13.227,5.268-17.878,6.792-2.324.768-4.221,1.339-5.537,1.713l-1.517.43A2.711,2.711,0,0,1,0-14.668" transform="translate(0 37.391)" fill="#e1e1e1"/>
        </g>
        <g id="g32" transform="translate(369.423 358.841)">
          <path id="path34" d="M-12.572-3.6c-.042.06-.991-.6-2.623-1.482A32.282,32.282,0,0,0-21.9-7.77a32.349,32.349,0,0,0-7.139-1.1c-1.854-.071-3.006.013-3.012-.061a3.033,3.033,0,0,1,.8-.131,19.738,19.738,0,0,1,2.214-.106,27.935,27.935,0,0,1,7.245.989,27.862,27.862,0,0,1,6.737,2.84A19.6,19.6,0,0,1-13.2-4.119a3.04,3.04,0,0,1,.625.523" transform="translate(32.048 9.166)" fill="#e1e1e1"/>
        </g>
        <g id="g36" transform="translate(194.814 327.976)">
          <path id="path38" d="M-.678,0A17.332,17.332,0,0,0,1.511,16.016,17.331,17.331,0,0,0,16.1,22.978C14.545,12.778,10.622,3.094-.678,0" transform="translate(1.728)" fill="#fff"/>
        </g>
        <g id="g40" transform="translate(194.258 322.972)">
          <path id="path42" d="M-.006,0C.062-.016.34,1.114.929,2.892A43.338,43.338,0,0,0,3.806,9.6a43.387,43.387,0,0,0,4,6.111c1.155,1.474,1.942,2.331,1.891,2.379a3.062,3.062,0,0,1-.614-.544c-.379-.366-.9-.928-1.509-1.646A35.643,35.643,0,0,1,3.434,9.8a35.606,35.606,0,0,1-2.79-6.82C.383,2.074.2,1.332.108.813A3.059,3.059,0,0,1-.006,0" transform="translate(0.014 0)" fill="#e1e1e1"/>
        </g>
        <g id="g44" transform="translate(32.313 123.519)">
          <path id="path46" d="M-1.05,0A26.848,26.848,0,0,0,2.34,24.81,26.851,26.851,0,0,0,24.938,35.6C22.53,19.793,16.454,4.794-1.05,0" transform="translate(2.677)" fill="#fff"/>
        </g>
        <g id="g48" transform="translate(31.459 115.767)">
          <path id="path50" d="M0,0A7.3,7.3,0,0,1,.376,1.209c.209.786.544,1.915.99,3.3A64.755,64.755,0,0,0,5.8,14.929a64.608,64.608,0,0,0,6.229,9.463c.9,1.137,1.658,2.04,2.2,2.65a7.279,7.279,0,0,1,.8.984,7.287,7.287,0,0,1-.918-.874c-.577-.577-1.369-1.454-2.307-2.573a56.937,56.937,0,0,1-6.37-9.451A57.02,57.02,0,0,1,1.081,4.593c-.412-1.4-.7-2.545-.865-3.345A7.262,7.262,0,0,1,0,0" transform="translate(0.009 0)" fill="#e1e1e1"/>
        </g>
        <g id="g52" transform="translate(54.975 284.796)">
          <path id="path54" d="M-4.094,0A17.333,17.333,0,0,0-10.36,14.9,17.332,17.332,0,0,0-1.346,28.317C2.507,18.746,4.058,8.415-4.094,0" transform="translate(10.435)" fill="#fff"/>
        </g>
        <g id="g56" transform="translate(60.432 279.675)">
          <path id="path58" d="M-1.328,0C-1.261.02-1.6,1.135-2,2.965a43.268,43.268,0,0,0-.938,7.24A43.4,43.4,0,0,0-2.6,17.5c.244,1.857.485,2.995.417,3.01a3.078,3.078,0,0,1-.251-.78c-.14-.509-.3-1.256-.46-2.186A35.543,35.543,0,0,1-2.285,2.9c.237-.913.459-1.644.642-2.139A3.052,3.052,0,0,1-1.328,0" transform="translate(3.384 0)" fill="#e1e1e1"/>
        </g>
        <g id="g60" transform="translate(211.691 65.58)">
          <path id="path62" d="M0-9.251a17.331,17.331,0,0,0,16.155-.534,17.335,17.335,0,0,0,8.423-13.8C14.271-23.083,4.237-20.174,0-9.251" transform="translate(0 23.583)" fill="#fff"/>
        </g>
        <g id="g64" transform="translate(206.548 73.192)">
          <path id="path66" d="M0-5.032c-.009-.069,1.144-.23,2.973-.633A43.314,43.314,0,0,0,9.942-7.839a43.364,43.364,0,0,0,6.489-3.348c1.585-1,2.518-1.693,2.56-1.638a3.061,3.061,0,0,1-.6.555c-.4.34-1.015.8-1.792,1.332A35.652,35.652,0,0,1,10.1-7.449a35.7,35.7,0,0,1-7.07,2.076C2.1-5.207,1.347-5.1.821-5.062A3.069,3.069,0,0,1,0-5.032" transform="translate(0 12.828)" fill="#e1e1e1"/>
        </g>
        <g id="g68" transform="translate(189.344 43.46)">
          <path id="path70" d="M-.867-22.58A22.853,22.853,0,0,0,15.346-36.414a22.852,22.852,0,0,0-2.663-21.145C2.472-48.57-5.479-37.322-.867-22.58" transform="translate(2.209 57.559)" fill="#fff"/>
        </g>
        <g id="g72" transform="translate(186.27 60.128)">
          <path id="path74" d="M0-15.265A5.319,5.319,0,0,1,.682-16.1c.464-.514,1.116-1.275,1.9-2.231A55.713,55.713,0,0,0,8-26.3a55.627,55.627,0,0,0,3.921-8.8c.4-1.168.706-2.124.9-2.788a5.286,5.286,0,0,1,.351-1.02,5.278,5.278,0,0,1-.192,1.062c-.144.68-.405,1.652-.773,2.839a48,48,0,0,1-3.836,8.915,48.033,48.033,0,0,1-5.558,7.954C1.993-17.2,1.3-16.468.8-15.987a5.308,5.308,0,0,1-.8.723" transform="translate(0.002 38.911)" fill="#e1e1e1"/>
        </g>
        <g id="g76" transform="translate(257.156 354.052)">
          <path id="path78" d="M0-1.263A10.436,10.436,0,0,0,7.994,4.289,10.439,10.439,0,0,0,17.023.653C11.866-2.81,5.974-5.014,0-1.263" transform="translate(0 3.219)" fill="#fff"/>
        </g>
        <g id="g80" transform="translate(254.285 354.671)">
          <path id="path82" d="M0,0A47.455,47.455,0,0,0,5.831,2.134a47.669,47.669,0,0,0,6.143.928,6.153,6.153,0,0,1-1.84.109,20.335,20.335,0,0,1-4.407-.627A20.385,20.385,0,0,1,1.561.975,6.156,6.156,0,0,1,0,0" transform="translate(0.001 0.012)" fill="#e1e1e1"/>
        </g>
        <g id="g84" transform="translate(332.267 61.668)">
          <path id="path86" d="M0-2.209a10.434,10.434,0,0,0,8.917,3.9,10.433,10.433,0,0,0,8.155-5.312C11.342-6.023,5.135-7.046,0-2.209" transform="translate(0 5.632)" fill="#fff"/>
        </g>
        <g id="g88" transform="translate(329.193 64.329)">
          <path id="path90" d="M0-.008a47.466,47.466,0,0,0,6.135.97A47.521,47.521,0,0,0,12.34.684a6.119,6.119,0,0,1-1.784.463,20.32,20.32,0,0,1-4.445.237A20.3,20.3,0,0,1,1.721.651,6.121,6.121,0,0,1,0-.008" transform="translate(0.001 0.021)" fill="#e1e1e1"/>
        </g>
        <g id="g92" transform="translate(526.921 71.251)">
          <path id="path94" d="M0-12.113a17.328,17.328,0,0,0,15.748-3.615A17.327,17.327,0,0,0,21.37-30.877C11.354-28.414,2.066-23.641,0-12.113" transform="translate(0 30.877)" fill="#fff"/>
        </g>
        <g id="g96" transform="translate(522.082 80.773)">
          <path id="path98" d="M0-7.283c-.022-.066,1.078-.444,2.8-1.19a43.259,43.259,0,0,0,6.421-3.466,43.327,43.327,0,0,0,5.725-4.526c1.364-1.283,2.147-2.143,2.2-2.1a3,3,0,0,1-.486.661c-.331.41-.843.976-1.5,1.65a35.63,35.63,0,0,1-5.7,4.665A35.582,35.582,0,0,1,2.909-8.2c-.88.34-1.6.587-2.111.728a3.09,3.09,0,0,1-.8.186" transform="translate(0.001 18.564)" fill="#e1e1e1"/>
        </g>
        <g id="g100" transform="translate(544.145 290.557)">
          <path id="path102" d="M-1.257-29.964a30.149,30.149,0,0,0,21.1-18.578A30.149,30.149,0,0,0,15.9-76.38C2.617-64.316-7.643-49.316-1.257-29.964" transform="translate(3.204 76.38)" fill="#fff"/>
        </g>
        <g id="g104" transform="translate(540.376 312.643)">
          <path id="path106" d="M0-20.309a9.075,9.075,0,0,1,.9-1.1c.608-.682,1.458-1.694,2.475-2.97s2.176-2.836,3.387-4.618c1.194-1.795,2.437-3.813,3.62-6s2.166-4.348,3-6.335c.817-2,1.484-3.82,1.979-5.375s.874-2.821,1.107-3.7a9.214,9.214,0,0,1,.416-1.36,9.048,9.048,0,0,1-.258,1.4c-.183.9-.514,2.182-.981,3.752s-1.1,3.419-1.9,5.434a69.805,69.805,0,0,1-2.99,6.387,69.488,69.488,0,0,1-3.671,6.02C5.849-27,4.666-25.441,3.609-24.188S1.67-21.946,1.024-21.3A9.252,9.252,0,0,1,0-20.309" transform="translate(0.002 51.768)" fill="#e1e1e1"/>
        </g>
      </g>
    </g>
    <g id="g108" transform="translate(353.75 100)">
      <g id="g110" clip-path="url(#clip-path)">
        <g id="g116" transform="translate(174.624 45.808)">
          <path id="path118" d="M-16.472-2.248c-6.436-5.276-16.944-4.43-22.6,1.679-4.9,4.315-3.391,16.564,2.688,22.247s16.935,4.853,22.222-1.574,4.12-17.076-2.316-22.352" transform="translate(41.989 5.73)" fill="#fff"/>
        </g>
        <g id="g120" transform="translate(341.308 37.204)">
          <path id="path122" d="M-3.66-15c6.709,2.743,13.947-3.67,21.155-2.92,3.684.382,6.883,2.591,10.321,3.969S38.034-12.2,39.4-16.789c3.126-5.562-1.991-12.247-6.967-16.029S18.545-37.84,12.3-38.176a27.188,27.188,0,0,0-13.141,2.1c-4.048,1.924-7.459,5.543-8.311,9.944S-7.809-16.7-3.66-15" transform="translate(9.329 38.237)" fill="#fff"/>
        </g>
        <g id="g124" transform="translate(61.089 71.714)">
          <path id="path126" d="M-49.907-24.714A38.656,38.656,0,0,1-88.19,14.311a38.657,38.657,0,0,1-39.026-38.283A38.656,38.656,0,0,1-88.933-63,38.655,38.655,0,0,1-49.907-24.714" transform="translate(127.217 62.999)" fill="#fff"/>
        </g>
        <g id="g128" transform="translate(68.471 262.438)">
          <path id="path130" d="M-57.96-18.766c-14.674-17.857-30.563-27.613-45.316-28.961-15.834-1.052-32.97,5.5-40.817,19.29s-2.7,34.525,12.168,40.058c6.111,2.274,13.145,1.992,18.714,5.383,8.672,5.281,10.444,17.123,17.038,24.843,8.1,9.481,23.317,11.1,34.147,4.919s17.078-18.852,17.218-31.322S-50.042-9.132-57.96-18.766" transform="translate(147.743 47.837)" fill="#fff"/>
        </g>
        <g id="g132" transform="translate(507.294 176.633)">
          <path id="path134" d="M-51.672-25.588a40.023,40.023,0,0,1-39.637,40.4,40.022,40.022,0,0,1-40.4-39.637,40.021,40.021,0,0,1,39.637-40.4,40.022,40.022,0,0,1,40.4,39.637" transform="translate(131.715 65.227)" fill="#fff"/>
        </g>
      </g>
    </g>
    <g id="g136" transform="translate(353.75 100)">
      <g id="g138" clip-path="url(#clip-path)">
        <g id="g144" transform="translate(146.113 97.439)">
          <path id="path146" d="M-187.2-88.683c-5.118-28.559-29.643-53.5-58.561-55.857-15.756-1.283-31.6,3.686-47.3,1.791A55.074,55.074,0,0,1-327.485-160.9c-12.95-14.751-17.353-35.727-31.073-49.764-18.913-19.349-51.919-19.655-74.928-5.417s-36.922,39.926-43.288,66.224l-.252,8c-1.386,27.276,5.788,58.978,21.615,83.291,16.031,24.629,26.574,34.8,55.793,52.51,24.812,15.039,73.4,21.651,102.4,22.35s58.805-7.949,80.618-27.08,34.512-49.335,29.395-77.894" transform="translate(477.194 226.06)" fill="#d5dbea"/>
        </g>
        <g id="g148" transform="translate(146.113 97.439)">
          <g id="g162">
            <g id="g160" opacity="0.8" clip-path="url(#clip-path-4)">
              <g id="g158" transform="translate(0 0)">
                <path id="path156" d="M-187.2-88.683c-5.118-28.559-29.643-53.5-58.561-55.857-15.756-1.283-31.6,3.686-47.3,1.791A55.074,55.074,0,0,1-327.485-160.9c-12.95-14.751-17.353-35.727-31.073-49.764-18.913-19.349-51.919-19.655-74.928-5.417s-36.922,39.926-43.288,66.224l-.252,8c-1.386,27.276,5.788,58.978,21.615,83.291,16.031,24.629,26.574,34.8,55.793,52.51,24.812,15.039,73.4,21.651,102.4,22.35s58.805-7.949,80.618-27.08,34.512-49.335,29.395-77.894" transform="translate(477.194 226.06)" fill="#fff"/>
              </g>
            </g>
          </g>
        </g>
        <g id="g164" transform="translate(436.706 320.785)">
          <path id="path166" d="M-18.05-8.939A13.98,13.98,0,0,1-31.9,5.175,13.98,13.98,0,0,1-46.01-8.67,13.981,13.981,0,0,1-32.164-22.784,13.98,13.98,0,0,1-18.05-8.939" transform="translate(46.01 22.785)" fill="#e62e38"/>
        </g>
        <g id="g168" transform="translate(436.706 320.785)">
          <g id="g182" transform="translate(0 0)">
            <g id="g180" opacity="0.8" clip-path="url(#clip-path-5)">
              <g id="g178" transform="translate(0 0)">
                <path id="path176" d="M-18.05-8.939A13.98,13.98,0,0,1-31.9,5.175,13.98,13.98,0,0,1-46.01-8.67,13.981,13.981,0,0,1-32.164-22.784,13.98,13.98,0,0,1-18.05-8.939" transform="translate(46.01 22.785)" fill="#fff"/>
              </g>
            </g>
          </g>
        </g>
      </g>
    </g>
    <g id="g184" transform="translate(353.75 100)">
      <g id="g186" clip-path="url(#clip-path)">
        <g id="g192" transform="translate(211.397 92.939)">
          <path id="path194" d="M-67.7-51.7q-.253-26.351-9.216-38.928t-25.908-12.414q-16.946.164-25.591,12.908t-8.394,39.1l.573,59.623q.254,26.5,9.292,39.149t25.982,12.486q16.944-.162,25.517-12.907t8.317-39.393ZM-31.368,2.527q.4,41.851-18.249,63.984T-100.684,88.96q-32.567.314-51.785-21.46T-172.089,3.879l-.472-49.068q-.4-41.7,18.248-63.984t51.215-22.6q32.415-.312,51.638,21.609T-31.84-46.541Z" transform="translate(172.569 131.775)" fill="#e62e38"/>
        </g>
        <g id="g212" transform="translate(232.026 92.741)">
          <path id="path214" d="M-67.7-51.7q-.253-26.351-9.216-38.928t-25.908-12.413q-16.946.163-25.591,12.908t-8.394,39.1l.574,59.623q.253,26.5,9.291,39.15t25.983,12.485q16.943-.163,25.517-12.907t8.317-39.392ZM-31.368,2.528q.4,41.851-18.248,63.984t-51.068,22.448q-32.567.312-51.784-21.462t-19.621-63.62l-.472-49.069q-.4-41.7,18.249-63.984t51.214-22.6q32.415-.312,51.638,21.609t19.621,63.621Z" transform="translate(172.569 131.775)" fill="#d5dbea"/>
        </g>
        <g id="g216" transform="translate(210.634 182.238)">
          <path id="path218" d="M-13.911,0c.041.109-4.75,2.01-10.7,4.246S-35.417,8.2-35.459,8.094s4.749-2.009,10.7-4.247S-13.952-.113-13.911,0" transform="translate(35.459 0.008)" fill="#d5dbea"/>
        </g>
        <g id="g220" transform="translate(211.824 201.627)">
          <path id="path222" d="M-13.911,0c.041.109-4.75,2.01-10.7,4.246S-35.417,8.2-35.459,8.095s4.749-2.01,10.7-4.247S-13.952-.113-13.911,0" transform="translate(35.459 0.008)" fill="#d5dbea"/>
        </g>
        <g id="g224" transform="translate(213.015 221.017)">
          <path id="path226" d="M-13.911,0c.041.109-4.75,2.009-10.7,4.245S-35.417,8.2-35.459,8.094s4.749-2.009,10.7-4.247S-13.952-.113-13.911,0" transform="translate(35.459 0.008)" fill="#d5dbea"/>
        </g>
        <g id="g228" transform="translate(214.205 240.406)">
          <path id="path230" d="M-13.911,0c.041.109-4.75,2.009-10.7,4.246S-35.417,8.2-35.459,8.094s4.749-2.009,10.7-4.247S-13.952-.113-13.911,0" transform="translate(35.459 0.008)" fill="#d5dbea"/>
        </g>
        <g id="g232" transform="translate(217.33 259.795)">
          <path id="path234" d="M-12.662,0A3.145,3.145,0,0,1-13.4.363c-.487.211-1.2.5-2.078.853-1.762.7-4.2,1.646-6.912,2.663s-5.17,1.916-6.958,2.548c-.894.315-1.62.564-2.125.727a3.178,3.178,0,0,1-.8.213A3.071,3.071,0,0,1-31.535,7c.488-.211,1.2-.5,2.078-.853,1.762-.7,4.2-1.646,6.913-2.664s5.168-1.917,6.956-2.547c.895-.315,1.621-.564,2.125-.727a3.134,3.134,0,0,1,.8-.213" transform="translate(32.276 0.009)" fill="#d5dbea"/>
        </g>
        <g id="g236" transform="translate(225.376 277.531)">
          <path id="path238" d="M-11.043,0A16.832,16.832,0,0,1-13.5,1.078c-1.535.617-3.664,1.442-6.026,2.33s-4.509,1.669-6.071,2.214a16.909,16.909,0,0,1-2.557.8A16.626,16.626,0,0,1-25.7,5.344c1.535-.617,3.664-1.443,6.027-2.33S-15.162,1.344-13.6.8A17.018,17.018,0,0,1-11.043,0" transform="translate(28.15 0.01)" fill="#d5dbea"/>
        </g>
        <g id="g240" transform="translate(239.093 293.804)">
          <path id="path242" d="M-9.837,0a13.431,13.431,0,0,1-2.179.979c-1.365.553-3.261,1.292-5.366,2.082S-21.4,4.54-22.791,5.022a13.272,13.272,0,0,1-2.284.7,13.466,13.466,0,0,1,2.18-.979c1.365-.553,3.261-1.291,5.366-2.082s4.016-1.484,5.409-1.967A13.483,13.483,0,0,1-9.837,0" transform="translate(25.075 0.011)" fill="#d5dbea"/>
        </g>
        <g id="g244" transform="translate(258.792 304.472)">
          <path id="path246" d="M-9.837,0a13.48,13.48,0,0,1-2.179.978c-1.366.554-3.262,1.292-5.366,2.082S-21.4,4.54-22.791,5.022a13.305,13.305,0,0,1-2.284.7A13.524,13.524,0,0,1-22.9,4.743c1.365-.553,3.262-1.292,5.366-2.082s4.016-1.484,5.409-1.967A13.422,13.422,0,0,1-9.837,0" transform="translate(25.075 0.011)" fill="#d5dbea"/>
        </g>
        <g id="g248" transform="translate(305.797 263.101)">
          <path id="path250" d="M-17.847,0C-17.8.1-23.949,2.973-31.582,6.4s-13.863,6.129-13.91,6.023,6.1-2.974,13.737-6.407S-17.894-.109-17.847,0" transform="translate(45.492 0.005)" fill="#ff4f5b"/>
        </g>
        <g id="g252" transform="translate(314.623 246.486)">
          <path id="path254" d="M-14.753,0C-14.7.1-19.782,2.49-26.092,5.326s-11.467,5.052-11.514,4.945,5.029-2.492,11.34-5.329S-14.8-.109-14.753,0" transform="translate(37.606 0.006)" fill="#ff4f5b"/>
        </g>
        <g id="g256" transform="translate(316.48 227.824)">
          <path id="path258" d="M-14.753,0c.048.106-5.03,2.492-11.34,5.329s-11.466,5.051-11.513,4.945,5.029-2.492,11.34-5.33S-14.8-.109-14.753,0" transform="translate(37.606 0.006)" fill="#ff4f5b"/>
        </g>
        <g id="g260" transform="translate(318.337 209.162)">
          <path id="path262" d="M-14.753,0C-14.7.1-19.782,2.49-26.092,5.327s-11.467,5.051-11.514,4.945,5.029-2.492,11.34-5.33S-14.8-.109-14.753,0" transform="translate(37.606 0.006)" fill="#ff4f5b"/>
        </g>
        <g id="g264" transform="translate(320.194 190.499)">
          <path id="path266" d="M-14.753,0c.048.106-5.03,2.492-11.34,5.329s-11.466,5.051-11.513,4.945,5.029-2.492,11.34-5.33S-14.8-.109-14.753,0" transform="translate(37.606 0.006)" fill="#ff4f5b"/>
        </g>
        <g id="g268" transform="translate(316.48 173.88)">
          <path id="path270" d="M-14.753,0c.048.106-5.03,2.492-11.34,5.329s-11.466,5.051-11.513,4.945,5.029-2.492,11.34-5.33S-14.8-.109-14.753,0" transform="translate(37.606 0.006)" fill="#ff4f5b"/>
        </g>
        <g id="g272" transform="translate(316.48 155.989)">
          <path id="path274" d="M-14.753,0c.048.106-5.03,2.492-11.34,5.329s-11.466,5.051-11.513,4.944,5.029-2.492,11.34-5.329S-14.8-.109-14.753,0" transform="translate(37.606 0.006)" fill="#ff4f5b"/>
        </g>
        <g id="g276" transform="translate(314.623 139.141)">
          <path id="path278" d="M-14.753,0C-14.7.1-19.782,2.49-26.092,5.327s-11.467,5.051-11.514,4.945,5.029-2.492,11.34-5.33S-14.8-.109-14.753,0" transform="translate(37.606 0.006)" fill="#ff4f5b"/>
        </g>
        <g id="g280" transform="translate(307.57 127.403)">
          <path id="path282" d="M-8.974,0a68.871,68.871,0,0,1-6.864,3.317,68.637,68.637,0,0,1-7.036,2.932A69.091,69.091,0,0,1-16.01,2.928,68.987,68.987,0,0,1-8.974,0" transform="translate(22.874 0.01)" fill="#d5dbea"/>
        </g>
        <g id="g284" transform="translate(299.012 120.213)">
          <path id="path286" d="M-8.974,0a69.089,69.089,0,0,1-6.864,3.317,68.912,68.912,0,0,1-7.037,2.932,69.31,69.31,0,0,1,6.864-3.316A68.866,68.866,0,0,1-8.974,0" transform="translate(22.875 0.01)" fill="#d5dbea"/>
        </g>
        <g id="g288" transform="translate(211.553 158.734)">
          <path id="path290" d="M-13.91,0c.041.109-4.75,2.01-10.7,4.246S-35.417,8.2-35.457,8.094s4.749-2.009,10.7-4.247S-13.951-.113-13.91,0" transform="translate(35.458 0.008)" fill="#d5dbea"/>
        </g>
        <g id="g292" transform="translate(215.712 134.553)">
          <path id="path294" d="M-15.075,0c.041.109-5.153,2.162-11.6,4.585s-11.71,4.3-11.751,4.19,5.153-2.161,11.6-4.585S-15.116-.111-15.075,0" transform="translate(38.428 0.007)" fill="#d5dbea"/>
        </g>
        <g id="g296" transform="translate(225.067 110.623)">
          <path id="path298" d="M-19.09,0c.041.109-6.546,2.685-14.711,5.754s-14.82,5.468-14.861,5.359,6.545-2.685,14.713-5.755S-19.132-.111-19.09,0" transform="translate(48.663 0.006)" fill="#d5dbea"/>
        </g>
        <g id="g300" transform="translate(248.104 261.94)">
          <path id="path302" d="M-78.519-.925a2.3,2.3,0,0,1-.34-.117l-.976-.378c-.431-.16-.991-.276-1.636-.461a15.969,15.969,0,0,0-2.3-.276C-87.225-2.38-92.41-1.12-97.424,2.636a38.924,38.924,0,0,0-7.237,7.154c-2.325,2.846-4.6,6.062-7.185,9.307a42.545,42.545,0,0,1-9.338,9.051A33.82,33.82,0,0,1-134.1,33.382a33.23,33.23,0,0,1-13.928-.465,65.805,65.805,0,0,1-12.2-4.528c-3.762-1.745-7.273-3.522-10.649-4.985a55.94,55.94,0,0,0-9.658-3.287,35.673,35.673,0,0,0-8.346-.961,25.273,25.273,0,0,0-6.28.855,22.349,22.349,0,0,0-3.737,1.465l-.926.489a2.129,2.129,0,0,1-.324.154,2.294,2.294,0,0,1,.3-.191l.909-.527a20.82,20.82,0,0,1,3.731-1.548,24.977,24.977,0,0,1,6.322-.933,35.516,35.516,0,0,1,8.416.906,55.666,55.666,0,0,1,9.73,3.258c3.393,1.453,6.914,3.222,10.672,4.952a65.868,65.868,0,0,0,12.136,4.479,32.9,32.9,0,0,0,13.757.452,33.5,33.5,0,0,0,12.76-5.162,42.338,42.338,0,0,0,9.266-8.951c2.585-3.226,4.87-6.436,7.217-9.286A39.017,39.017,0,0,1-97.6,2.4C-92.517-1.366-87.253-2.6-83.757-2.32A15.437,15.437,0,0,1-81.441-2c.647.2,1.207.329,1.636.5l.966.419a2.2,2.2,0,0,1,.321.156" transform="translate(200.15 2.358)" fill="#fff"/>
        </g>
        <g id="g304" transform="translate(336.751 209.283)">
          <path id="path306" d="M-24.59,0c.008.045-.578.12-1.575.452a15.582,15.582,0,0,0-3.912,2.095c-1.547,1.079-3.222,2.585-5.2,4.144a37.754,37.754,0,0,1-6.963,4.284,38.309,38.309,0,0,1-14.313,3.7c-.948.079-1.81.05-2.564.067-.754-.03-1.405-.043-1.934-.083l-1.216-.124a1.644,1.644,0,0,1-.421-.071,1.565,1.565,0,0,1,.428-.014l1.218.045,1.925.012c.748-.039,1.6-.032,2.543-.129a39.887,39.887,0,0,0,14.152-3.782,38.836,38.836,0,0,0,6.906-4.21c1.97-1.529,3.678-3.022,5.263-4.082A14.548,14.548,0,0,1-26.216.292a8.5,8.5,0,0,1,1.2-.259A1.565,1.565,0,0,1-24.59,0" transform="translate(62.683 0.01)" fill="#fff"/>
        </g>
        <g id="g308" transform="translate(229.692 211.807)">
          <path id="path310" d="M-25.377-10.493a1.717,1.717,0,0,1-.445-.062c-.287-.062-.72-.126-1.259-.28a19.276,19.276,0,0,1-4.34-1.9,43.626,43.626,0,0,1-5.673-4.145c-2.035-1.68-4.207-3.6-6.7-5.325a23.11,23.11,0,0,0-7.689-3.525,23.364,23.364,0,0,0-6.9-.656,23.212,23.212,0,0,0-4.637.708c-1.078.272-1.659.483-1.673.442a1.778,1.778,0,0,1,.411-.182,12.63,12.63,0,0,1,1.219-.418,20.932,20.932,0,0,1,4.662-.848,22.853,22.853,0,0,1,7.008.576,23.033,23.033,0,0,1,7.836,3.553c2.521,1.743,4.691,3.684,6.707,5.376A46.441,46.441,0,0,0-31.268-13a21.113,21.113,0,0,0,4.236,2c1.061.316,1.663.463,1.655.5" transform="translate(64.688 26.749)" fill="#fff"/>
        </g>
        <g id="g312" transform="translate(233.783 148.145)">
          <path id="path314" d="M-22.828-2.148a9.284,9.284,0,0,1-1.351.494c-.438.152-.979.324-1.618.48s-1.358.376-2.175.522c-.812.169-1.7.347-2.672.468-.963.161-2,.237-3.1.335A47.475,47.475,0,0,1-40.873.065,47.522,47.522,0,0,1-47.9-1.18c-1.056-.3-2.064-.568-2.98-.906-.929-.3-1.771-.64-2.537-.958-.775-.3-1.443-.641-2.039-.919s-1.1-.542-1.5-.773a9.4,9.4,0,0,1-1.235-.737,9.31,9.31,0,0,1,1.31.591c.412.207.919.455,1.524.7s1.275.579,2.052.856c.767.3,1.61.62,2.536.9.914.321,1.917.574,2.966.861a50.262,50.262,0,0,0,6.968,1.2,50.367,50.367,0,0,0,7.068.118c1.085-.088,2.117-.149,3.075-.293.963-.105,1.851-.265,2.66-.415.815-.126,1.535-.318,2.176-.458s1.186-.281,1.629-.408a9.4,9.4,0,0,1,1.4-.337" transform="translate(58.191 5.475)" fill="#fff"/>
        </g>
        <g id="g316" transform="translate(334.968 145.684)">
          <path id="path318" d="M-22.773-3.6a1.317,1.317,0,0,1-.344-.166l-.941-.543a14.74,14.74,0,0,0-1.5-.822c-.6-.292-1.263-.668-2.052-.966l-1.217-.506c-.425-.173-.884-.3-1.351-.465-.927-.343-1.957-.577-3.03-.856a36.607,36.607,0,0,0-7.155-.839,36.632,36.632,0,0,0-7.17.712c-1.079.259-2.113.476-3.046.8-.468.154-.932.275-1.359.441l-1.227.485c-.792.283-1.461.649-2.067.929a14.733,14.733,0,0,0-1.518.795l-.95.526a1.382,1.382,0,0,1-.348.16c-.008-.012.1-.092.3-.232l.912-.6a12.873,12.873,0,0,1,1.494-.863,20.834,20.834,0,0,1,2.06-1l1.228-.514c.429-.175.894-.306,1.365-.469a30.848,30.848,0,0,1,3.071-.849,35.319,35.319,0,0,1,7.255-.754,35.324,35.324,0,0,1,7.24.882,30.866,30.866,0,0,1,3.055.9c.468.171.932.31,1.357.492l1.219.536a21.143,21.143,0,0,1,2.041,1.031,12.75,12.75,0,0,1,1.479.89l.9.613c.2.143.306.224.3.237" transform="translate(58.051 9.188)" fill="#fff"/>
        </g>
        <g id="g320" transform="translate(257.067 96.229)">
          <path id="path322" d="M-41.083,0A4.2,4.2,0,0,1-41.67.35l-1.719.931c-1.5.8-3.673,1.942-6.389,3.3A110.642,110.642,0,0,1-71.863,13.22a60.508,60.508,0,0,1-12.954,1.8,46.445,46.445,0,0,1-10.639-.912A37.172,37.172,0,0,1-102.341,12c-.794-.3-1.373-.63-1.78-.814a4.127,4.127,0,0,1-.6-.319,4.2,4.2,0,0,1,.638.241c.418.159,1.006.459,1.806.739A40.173,40.173,0,0,0-95.4,13.813a47.557,47.557,0,0,0,10.57.817,61.582,61.582,0,0,0,12.862-1.82,116.786,116.786,0,0,0,22.055-8.5l6.446-3.18,1.755-.861A4.071,4.071,0,0,1-41.083,0" transform="translate(104.724 0.002)" fill="#fff"/>
        </g>
        <g id="g324" transform="translate(29.156 97.856)">
          <path id="path326" d="M-23.048-87.46l57.562,2.513,3.8-87.006-.871-.333-3.22,6.2Zm93.19,4.068L97.23-82.209,95.977-53.5,68.888-54.685l-2.082,47.7L31.179-8.541l2.082-47.7-92.012-4.016.07-21.861,98.04-140.825,36.8,1.606Z" transform="translate(58.751 222.942)" fill="#e62e38"/>
        </g>
        <g id="g344" transform="translate(51.81 98.844)">
          <path id="path346" d="M-23.047-87.46l57.563,2.513,3.8-87.007-.87-.332-3.22,6.2Zm93.19,4.068L97.231-82.21,95.978-53.5l-27.09-1.183-2.082,47.7L31.181-8.541l2.082-47.7-92.012-4.016.07-21.861L39.36-222.943l36.8,1.607Z" transform="translate(58.749 222.943)" fill="#d5dbea"/>
        </g>
        <g id="g348" transform="translate(28.863 243.823)">
          <path id="path350" d="M-15.155,0a4.653,4.653,0,0,1-.877.49c-.575.293-1.417.7-2.462,1.189-2.089.98-5,2.287-8.24,3.658S-32.942,7.881-35.1,8.7c-1.079.408-1.956.728-2.567.937a4.556,4.556,0,0,1-.963.286,4.71,4.71,0,0,1,.9-.439l2.517-1.061L-26.9,4.945-18.616,1.4-16.1.34A4.55,4.55,0,0,1-15.155,0" transform="translate(38.631 0.006)" fill="#d5dbea"/>
        </g>
        <g id="g352" transform="translate(33.224 219.559)">
          <path id="path354" d="M-20.851,0a8.573,8.573,0,0,1-1.22.646c-.8.389-1.961.935-3.406,1.593C-28.365,3.555-32.382,5.314-36.841,7.2s-8.524,3.54-11.481,4.693c-1.478.578-2.68,1.031-3.515,1.332a8.742,8.742,0,0,1-1.313.426,8.507,8.507,0,0,1,1.253-.579l3.463-1.457,11.429-4.8L-25.6,1.964l3.458-1.47A8.7,8.7,0,0,1-20.851,0" transform="translate(53.151 0.004)" fill="#d5dbea"/>
        </g>
        <g id="g356" transform="translate(47.914 197.924)">
          <path id="path358" d="M-21.761,0a9.231,9.231,0,0,1-1.278.647c-.834.389-2.049.936-3.558,1.594C-29.613,3.557-33.807,5.316-38.46,7.2s-8.893,3.538-11.977,4.691c-1.541.578-2.795,1.031-3.665,1.332a9.171,9.171,0,0,1-1.367.424,9.449,9.449,0,0,1,1.309-.579l3.615-1.456,11.926-4.8,11.906-4.849L-23.1.494A9.273,9.273,0,0,1-21.761,0" transform="translate(55.469 0.004)" fill="#d5dbea"/>
        </g>
        <g id="g360" transform="translate(122.59 222.911)">
          <path id="path362" d="M-15.185,0a4.61,4.61,0,0,1-.881.476c-.578.282-1.421.673-2.468,1.146-2.095.945-5.008,2.2-8.258,3.521s-6.22,2.439-8.382,3.218c-1.081.39-1.958.7-2.569.9a4.6,4.6,0,0,1-.963.271A4.523,4.523,0,0,1-37.8,9.1L-35.28,8.08l8.33-3.331,8.3-3.4L-16.131.323A4.63,4.63,0,0,1-15.185,0" transform="translate(38.707 0.006)" fill="#d5dbea"/>
        </g>
        <g id="g364" transform="translate(120.691 267.426)">
          <path id="path366" d="M-14.72,0a4.3,4.3,0,0,1-.851.475c-.56.282-1.377.673-2.39,1.145-2.028.944-4.852,2.2-8,3.52s-6.032,2.44-8.129,3.219c-1.048.391-1.9.7-2.494.9a4.38,4.38,0,0,1-.936.272,4.288,4.288,0,0,1,.877-.425l2.445-1.02,8.075-3.332,8.044-3.4L-15.639.323A4.386,4.386,0,0,1-14.72,0" transform="translate(37.522 0.006)" fill="#d5dbea"/>
        </g>
        <g id="g368" transform="translate(120.316 283.027)">
          <path id="path370" d="M-14.72,0a4.322,4.322,0,0,1-.851.476c-.56.281-1.377.673-2.39,1.145-2.028.944-4.852,2.2-8,3.52s-6.032,2.44-8.129,3.219c-1.048.39-1.9.7-2.494.9a4.28,4.28,0,0,1-.936.271,4.341,4.341,0,0,1,.877-.425L-34.2,8.08l8.075-3.332,8.044-3.4L-15.639.323A4.366,4.366,0,0,1-14.72,0" transform="translate(37.522 0.006)" fill="#d5dbea"/>
        </g>
        <g id="g372" transform="translate(119.941 298.63)">
          <path id="path374" d="M-14.72,0a4.405,4.405,0,0,1-.851.475c-.56.282-1.377.673-2.39,1.145-2.028.944-4.852,2.2-8,3.52s-6.032,2.44-8.129,3.219c-1.048.391-1.9.7-2.494.9a4.266,4.266,0,0,1-.936.271,4.4,4.4,0,0,1,.877-.425L-34.2,8.079l8.075-3.332,8.044-3.4L-15.639.323A4.326,4.326,0,0,1-14.72,0" transform="translate(37.522 0.006)" fill="#d5dbea"/>
        </g>
        <g id="g376" transform="translate(123.012 206.429)">
          <path id="path378" d="M-15.185,0a4.548,4.548,0,0,1-.88.476c-.579.282-1.421.673-2.469,1.146-2.095.945-5.008,2.2-8.258,3.521s-6.22,2.439-8.381,3.218c-1.081.39-1.959.7-2.57.9a4.648,4.648,0,0,1-.963.271A4.573,4.573,0,0,1-37.8,9.1l2.522-1.019,8.33-3.331,8.3-3.4L-16.131.322A4.522,4.522,0,0,1-15.185,0" transform="translate(38.707 0.006)" fill="#d5dbea"/>
        </g>
        <g id="g380" transform="translate(123.434 189.946)">
          <path id="path382" d="M-15.185,0a4.548,4.548,0,0,1-.88.476c-.579.282-1.422.673-2.469,1.146-2.095.945-5.008,2.2-8.258,3.521s-6.22,2.44-8.381,3.218c-1.081.39-1.959.7-2.57.9a4.555,4.555,0,0,1-.963.271A4.641,4.641,0,0,1-37.8,9.1l2.522-1.02,8.33-3.33,8.3-3.4L-16.131.323A4.584,4.584,0,0,1-15.185,0" transform="translate(38.707 0.006)" fill="#d5dbea"/>
        </g>
        <g id="g384" transform="translate(124.969 173.463)">
          <path id="path386" d="M-14.465,0A4.125,4.125,0,0,1-15.3.454c-.55.269-1.353.644-2.35,1.1-1.993.9-4.767,2.109-7.863,3.363s-5.93,2.318-7.99,3.056c-1.03.369-1.867.659-2.449.848a4.21,4.21,0,0,1-.919.254,4.069,4.069,0,0,1,.861-.408l2.4-.973,7.937-3.169,7.9-3.246,2.4-.973a4.156,4.156,0,0,1,.9-.306" transform="translate(36.874 0.006)" fill="#d5dbea"/>
        </g>
        <g id="g388" transform="translate(140.969 158.052)">
          <path id="path390" d="M-5.339-.008A23.214,23.214,0,0,1-9.4,1.722,23.306,23.306,0,0,1-13.61,3.057,23.216,23.216,0,0,1-9.548,1.326,23.261,23.261,0,0,1-5.339-.008" transform="translate(13.61 0.021)" fill="#d5dbea"/>
        </g>
        <g id="g392" transform="translate(63.987 175.492)">
          <path id="path394" d="M-21.761,0a9.231,9.231,0,0,1-1.278.647c-.834.389-2.049.936-3.558,1.594C-29.613,3.557-33.806,5.316-38.46,7.2s-8.893,3.538-11.977,4.691c-1.541.578-2.795,1.03-3.665,1.331a9.255,9.255,0,0,1-1.367.425,9.327,9.327,0,0,1,1.309-.579l3.615-1.456,11.926-4.8,11.907-4.848L-23.1.494A9.273,9.273,0,0,1-21.761,0" transform="translate(55.469 0.004)" fill="#d5dbea"/>
        </g>
        <g id="g396" transform="translate(80.059 153.059)">
          <path id="path398" d="M-21.761,0a9.231,9.231,0,0,1-1.278.647c-.834.389-2.049.936-3.558,1.594C-29.613,3.557-33.806,5.316-38.46,7.2s-8.893,3.539-11.977,4.691c-1.541.578-2.794,1.031-3.665,1.331a9.129,9.129,0,0,1-1.367.425,9.28,9.28,0,0,1,1.309-.578l3.615-1.456,11.926-4.8,11.907-4.849L-23.1.494A9.273,9.273,0,0,1-21.761,0" transform="translate(55.469 0.004)" fill="#d5dbea"/>
        </g>
        <g id="g400" transform="translate(94.914 130.627)">
          <path id="path402" d="M-21.761,0a9.245,9.245,0,0,1-1.277.647c-.835.389-2.05.936-3.559,1.594C-29.613,3.557-33.806,5.316-38.46,7.2s-8.893,3.538-11.977,4.691c-1.541.578-2.794,1.03-3.664,1.331a9.151,9.151,0,0,1-1.368.425,9.28,9.28,0,0,1,1.309-.578l3.615-1.457,11.926-4.8,11.907-4.848L-23.1.494A9.314,9.314,0,0,1-21.761,0" transform="translate(55.469 0.004)" fill="#d5dbea"/>
        </g>
        <g id="g404" transform="translate(110.37 109.058)">
          <path id="path406" d="M-21.761,0a9.231,9.231,0,0,1-1.278.647c-.834.389-2.049.936-3.558,1.594C-29.613,3.557-33.806,5.316-38.46,7.2s-8.893,3.538-11.977,4.691c-1.541.578-2.794,1.03-3.665,1.331a9.255,9.255,0,0,1-1.367.425,9.327,9.327,0,0,1,1.309-.579l3.615-1.456,11.926-4.8,11.907-4.848L-23.1.494A9.273,9.273,0,0,1-21.761,0" transform="translate(55.469 0.004)" fill="#d5dbea"/>
        </g>
        <g id="g408" transform="translate(120.642 137.848)">
          <path id="path410" d="M-41.611-2.693a4.434,4.434,0,0,1-.472.531A16.718,16.718,0,0,1-43.551-.743a25.806,25.806,0,0,1-6.3,4.063A27.588,27.588,0,0,1-60.672,5.789a25.33,25.33,0,0,1-6.552-.737A33.656,33.656,0,0,1-73.85,2.581C-78.207.458-82.079-2.048-85.866-3.79a27.485,27.485,0,0,0-10.61-2.769,15.756,15.756,0,0,0-7.238,1.352A12.849,12.849,0,0,0-105.469-4.2a4.4,4.4,0,0,1-.6.379,4.605,4.605,0,0,1,.551-.449,11.056,11.056,0,0,1,1.732-1.084,15.509,15.509,0,0,1,7.318-1.5A27.385,27.385,0,0,1-85.7-4.143C-81.876-2.4-77.99.095-73.667,2.2a33.572,33.572,0,0,0,6.542,2.451,25.16,25.16,0,0,0,6.446.749A27.689,27.689,0,0,0-49.972,3.048,26.99,26.99,0,0,0-43.658-.868c.69-.551,1.176-1.033,1.514-1.353a4.522,4.522,0,0,1,.533-.472" transform="translate(106.07 6.863)" fill="#fff"/>
        </g>
        <g id="g412" transform="translate(144.482 101.953)">
          <path id="path414" d="M-18.936,0a6.357,6.357,0,0,1-1.03.6c-.672.369-1.675.844-2.937,1.377A44.64,44.64,0,0,1-27.439,3.6a50.169,50.169,0,0,1-5.751,1.321,50.163,50.163,0,0,1-5.874.576,44.856,44.856,0,0,1-4.817-.1c-1.367-.1-2.469-.237-3.223-.372a6.4,6.4,0,0,1-1.166-.241,6.567,6.567,0,0,1,1.187.077c.758.085,1.86.172,3.22.237s2.984.079,4.783.006a55.414,55.414,0,0,0,5.822-.6,55.273,55.273,0,0,0,5.711-1.278c1.727-.5,3.265-1.023,4.533-1.525S-20.73.77-20.038.449A6.434,6.434,0,0,1-18.936,0" transform="translate(48.271 0.004)" fill="#fff"/>
        </g>
        <g id="g416" transform="translate(94.54 176.475)">
          <path id="path418" d="M-14.043-9.985a5.8,5.8,0,0,1-.729-.819l-1.919-2.281a90.573,90.573,0,0,0-6.785-7.093,24.735,24.735,0,0,0-4.252-3.269,12.973,12.973,0,0,0-4.051-1.574,11.564,11.564,0,0,0-4.016-.027c0-.014.088-.05.265-.107a5.7,5.7,0,0,1,.8-.186,9.066,9.066,0,0,1,3.007.026,12.692,12.692,0,0,1,4.192,1.53,23.744,23.744,0,0,1,4.345,3.3,71.9,71.9,0,0,1,6.728,7.211c.795.981,1.407,1.8,1.819,2.372a5.247,5.247,0,0,1,.6.92" transform="translate(35.796 25.453)" fill="#fff"/>
        </g>
        <g id="g420" transform="translate(146.324 209.34)">
          <path id="path422" d="M-22.335-4.574a1.435,1.435,0,0,1-.316.244c-.219.143-.528.375-.962.617a22.841,22.841,0,0,1-3.8,1.807A25.283,25.283,0,0,1-41.127-.821,25.277,25.277,0,0,1-53.313-7.209,22.914,22.914,0,0,1-56.1-10.364c-.3-.394-.5-.729-.641-.946a1.419,1.419,0,0,1-.2-.348,14.2,14.2,0,0,1,.967,1.194A26.465,26.465,0,0,0-53.11-7.428,25.847,25.847,0,0,0-41.042-1.234a25.862,25.862,0,0,0,13.529-.952,26.676,26.676,0,0,0,3.82-1.668,14.507,14.507,0,0,1,1.358-.719" transform="translate(56.934 11.658)" fill="#fff"/>
        </g>
        <g id="g424" transform="translate(52.787 238.394)">
          <path id="path426" d="M-97.957-18.936s-.085-.124-.233-.376l-.644-1.121a31.651,31.651,0,0,0-2.769-4.109l-1.1-1.3-.594-.7-.685-.675-1.46-1.437-1.7-1.414a38.37,38.37,0,0,0-8.9-5.289,36.653,36.653,0,0,0-12.191-2.831,33.928,33.928,0,0,0-14.122,2.268c-4.738,1.868-9.316,4.681-14.159,7.4a67.851,67.851,0,0,1-7.611,3.771,31.1,31.1,0,0,1-8.466,2.223,27.454,27.454,0,0,1-8.74-.527,39.133,39.133,0,0,1-8.047-2.75,83.7,83.7,0,0,1-13.7-8.328c-4.162-2.958-8.086-5.813-12-8.1a43.563,43.563,0,0,0-11.53-4.926,29.614,29.614,0,0,0-10.3-.678,21.783,21.783,0,0,0-7.484,2.166,18.985,18.985,0,0,0-4.074,2.792l-.911.915c-.207.205-.322.3-.322.3s.092-.117.29-.332.5-.54.884-.947a18.352,18.352,0,0,1,4.058-2.877,21.738,21.738,0,0,1,7.531-2.253,29.676,29.676,0,0,1,10.394.621,43.671,43.671,0,0,1,11.638,4.914c3.944,2.281,7.886,5.133,12.05,8.08a83.786,83.786,0,0,0,13.649,8.27,38.753,38.753,0,0,0,7.963,2.715,27.048,27.048,0,0,0,8.607.519,30.737,30.737,0,0,0,8.354-2.193,67.708,67.708,0,0,0,7.566-3.743c4.836-2.71,9.434-5.529,14.219-7.4a31.089,31.089,0,0,1,3.615-1.167c.606-.154,1.2-.338,1.8-.464l1.813-.3a34.753,34.753,0,0,1,7.052-.327,36.786,36.786,0,0,1,12.287,2.9A38.287,38.287,0,0,1-107-30.252l1.7,1.437,1.456,1.458q.349.351.683.685l.591.71,1.093,1.32a29.593,29.593,0,0,1,2.715,4.169l.609,1.143c.134.258.194.395.194.395" transform="translate(249.701 48.269)" fill="#fff"/>
        </g>
        <g id="g428" transform="translate(141.395 290.311)">
          <path id="path430" d="M-24.946-7.269a1.635,1.635,0,0,1-.412.108l-1.2.229a18.431,18.431,0,0,1-1.907.278c-.749.075-1.6.2-2.546.219q-.712.033-1.485.065c-.517.019-1.055-.009-1.612-.013-1.116.009-2.3-.108-3.551-.2a48.588,48.588,0,0,1-8-1.554,48.576,48.576,0,0,1-7.582-2.985c-1.106-.59-2.169-1.129-3.106-1.736-.472-.3-.942-.561-1.367-.854l-1.219-.853c-.789-.524-1.438-1.087-2.029-1.552a17.929,17.929,0,0,1-1.46-1.258c-.356-.336-.648-.611-.886-.836-.2-.194-.3-.3-.288-.312a1.718,1.718,0,0,1,.346.25l.936.775c.4.345.892.759,1.5,1.2s1.258.987,2.053,1.492l1.225.825c.427.284.9.54,1.37.827.936.589,2,1.112,3.1,1.688a50.717,50.717,0,0,0,7.527,2.927,50.589,50.589,0,0,0,7.92,1.572c1.238.106,2.413.235,3.519.241.553.011,1.087.049,1.6.038l1.475-.037c.942,0,1.788-.1,2.535-.156s1.386-.128,1.907-.206l1.206-.151a1.588,1.588,0,0,1,.426-.023" transform="translate(63.59 18.529)" fill="#fff"/>
        </g>
        <g id="g432" transform="translate(382.552 100.322)">
          <path id="path434" d="M-22.289-94.572l57.343-5.608-8.476-86.677-.909-.206-2.316,6.592Zm92.835-9.079,26.986-2.639,2.8,28.6L73.343-75.053l4.648,47.517L42.5-24.063,37.852-71.581-53.81-62.617l-3.006-21.654L20.442-237.485l36.665-3.586Z" transform="translate(56.816 241.071)" fill="#e62e38"/>
        </g>
        <g id="g452" transform="translate(405.12 98.115)">
          <path id="path454" d="M-22.289-94.572l57.343-5.609-8.475-86.676-.91-.207-2.316,6.593Zm92.835-9.079,26.986-2.64,2.8,28.6-26.986,2.64,4.648,47.517L42.5-24.064,37.852-71.582l-91.663,8.966-3.005-21.654L20.442-237.486l36.665-3.585Z" transform="translate(56.816 241.071)" fill="#d5dbea"/>
        </g>
        <g id="g456" transform="translate(384.311 258.964)">
          <path id="path458" d="M-14.1,0a4.554,4.554,0,0,1-.8.61c-.529.369-1.3.89-2.27,1.522C-19.1,3.394-21.8,5.1-24.816,6.911s-5.789,3.394-7.811,4.505c-1.011.555-1.834,1-2.41,1.29a4.606,4.606,0,0,1-.913.418,4.7,4.7,0,0,1,.832-.562l2.342-1.406,7.742-4.608,7.7-4.67L-14.99.47A4.634,4.634,0,0,1-14.1,0" transform="translate(35.95 0.004)" fill="#d5dbea"/>
        </g>
        <g id="g460" transform="translate(385.74 233.087)">
          <path id="path462" d="M-19.4,0A8.542,8.542,0,0,1-20.523.81c-.735.5-1.809,1.2-3.148,2.056-2.673,1.71-6.4,4.016-10.553,6.512s-7.941,4.7-10.707,6.261c-1.382.78-2.509,1.4-3.292,1.814a8.529,8.529,0,0,1-1.241.605,8.854,8.854,0,0,1,1.16-.749l3.224-1.929,10.639-6.364,10.613-6.4L-20.611.671A8.718,8.718,0,0,1-19.4,0" transform="translate(49.464 0.003)" fill="#d5dbea"/>
        </g>
        <g id="g464" transform="translate(397.242 209.403)">
          <path id="path466" d="M-20.3,0a9.315,9.315,0,0,1-1.173.82c-.771.5-1.9,1.215-3.3,2.078-2.8,1.729-6.706,4.061-11.047,6.583s-8.308,4.755-11.2,6.33c-1.445.788-2.622,1.412-3.441,1.833a9.181,9.181,0,0,1-1.293.613,9.33,9.33,0,0,1,1.215-.756l3.374-1.95,11.132-6.434C-31.728,6.6-27.829,4.331-24.93,2.641L-21.564.679A9.415,9.415,0,0,1-20.3,0" transform="translate(51.758 0.003)" fill="#d5dbea"/>
        </g>
        <g id="g468" transform="translate(474.109 225.072)">
          <path id="path470" d="M-14.169,0a4.6,4.6,0,0,1-.8.594c-.532.361-1.313.867-2.283,1.483C-19.2,3.3-21.905,4.961-24.937,6.722s-5.816,3.29-7.847,4.366c-1.015.537-1.841.963-2.418,1.247a4.612,4.612,0,0,1-.916.4,4.463,4.463,0,0,1,.837-.549l2.353-1.365,7.778-4.468,7.737-4.537L-15.06.454A4.551,4.551,0,0,1-14.169,0" transform="translate(36.118 0.004)" fill="#d5dbea"/>
        </g>
        <g id="g472" transform="translate(478.49 269.512)">
          <path id="path474" d="M-13.708,0a4.316,4.316,0,0,1-.775.591c-.515.357-1.267.859-2.206,1.469-1.875,1.22-4.494,2.863-7.428,4.61S-29.745,9.932-31.712,11c-.984.533-1.784.956-2.342,1.237a4.4,4.4,0,0,1-.889.4,4.256,4.256,0,0,1,.808-.544l2.277-1.354,7.527-4.434,7.484-4.5L-14.571.45A4.388,4.388,0,0,1-13.708,0" transform="translate(34.943 0.004)" fill="#d5dbea"/>
        </g>
        <g id="g476" transform="translate(480.313 285.012)">
          <path id="path478" d="M-13.708,0a4.316,4.316,0,0,1-.775.591c-.515.357-1.267.859-2.206,1.469-1.875,1.22-4.494,2.863-7.428,4.61S-29.745,9.932-31.712,11c-.984.533-1.784.956-2.343,1.237a4.413,4.413,0,0,1-.888.4,4.3,4.3,0,0,1,.808-.544l2.277-1.354,7.527-4.434,7.484-4.5L-14.571.45A4.361,4.361,0,0,1-13.708,0" transform="translate(34.943 0.004)" fill="#d5dbea"/>
        </g>
        <g id="g480" transform="translate(482.136 300.511)">
          <path id="path482" d="M-13.708,0a4.316,4.316,0,0,1-.775.591c-.515.357-1.267.859-2.206,1.469-1.875,1.22-4.494,2.863-7.428,4.61s-5.628,3.265-7.6,4.332c-.983.533-1.783.956-2.342,1.237a4.413,4.413,0,0,1-.888.4,4.3,4.3,0,0,1,.808-.544l2.277-1.354,7.527-4.434,7.484-4.5L-14.571.451A4.344,4.344,0,0,1-13.708,0" transform="translate(34.943 0.004)" fill="#ff4f5b"/>
        </g>
        <g id="g484" transform="translate(472.209 208.693)">
          <path id="path486" d="M-14.169,0a4.518,4.518,0,0,1-.8.595c-.532.361-1.313.867-2.283,1.482-1.941,1.23-4.649,2.887-7.681,4.647s-5.816,3.29-7.847,4.366c-1.015.538-1.841.963-2.418,1.248a4.593,4.593,0,0,1-.916.4,4.542,4.542,0,0,1,.837-.548l2.353-1.365,7.778-4.469,7.737-4.537c.934-.543,1.722-1,2.351-1.366A4.627,4.627,0,0,1-14.169,0" transform="translate(36.118 0.004)" fill="#d5dbea"/>
        </g>
        <g id="g488" transform="translate(470.308 192.315)">
          <path id="path490" d="M-14.169,0a4.518,4.518,0,0,1-.8.595c-.532.361-1.313.866-2.283,1.482-1.941,1.23-4.649,2.886-7.681,4.647s-5.816,3.29-7.847,4.366c-1.015.537-1.841.963-2.418,1.248a4.656,4.656,0,0,1-.916.4,4.565,4.565,0,0,1,.837-.549l2.353-1.364,7.778-4.469,7.737-4.537L-15.061.454A4.567,4.567,0,0,1-14.169,0" transform="translate(36.118 0.004)" fill="#d5dbea"/>
        </g>
        <g id="g492" transform="translate(469.446 175.937)">
          <path id="path494" d="M-13.5,0a4.2,4.2,0,0,1-.765.57c-.506.344-1.249.827-2.172,1.416-1.847,1.174-4.424,2.758-7.312,4.435s-5.545,3.129-7.48,4.15c-.968.51-1.757.915-2.307,1.184a4.169,4.169,0,0,1-.874.382,4.187,4.187,0,0,1,.8-.526l2.24-1.3,7.412-4.254,7.369-4.326,2.24-1.3A4.08,4.08,0,0,1-13.5,0" transform="translate(34.409 0.004)" fill="#d5dbea"/>
        </g>
        <g id="g496" transform="translate(482.276 160.42)">
          <path id="path498" d="M-5.008-.005A23.286,23.286,0,0,1-8.786,2.279a23.179,23.179,0,0,1-3.978,1.913A23.22,23.22,0,0,1-8.987,1.908,23.262,23.262,0,0,1-5.008-.005" transform="translate(12.766 0.014)" fill="#d5dbea"/>
        </g>
        <g id="g500" transform="translate(410 184.932)">
          <path id="path502" d="M-20.3,0a9.27,9.27,0,0,1-1.174.82c-.771.5-1.9,1.215-3.3,2.078-2.8,1.729-6.7,4.061-11.047,6.584s-8.307,4.754-11.2,6.329c-1.445.788-2.621,1.412-3.44,1.834a9.533,9.533,0,0,1-1.293.613,9.087,9.087,0,0,1,1.215-.757l3.374-1.95,11.131-6.434,11.106-6.475L-21.564.679A9.3,9.3,0,0,1-20.3,0" transform="translate(51.758 0.003)" fill="#d5dbea"/>
        </g>
        <g id="g504" transform="translate(422.758 160.463)">
          <path id="path506" d="M-20.3,0a9.376,9.376,0,0,1-1.174.82c-.771.5-1.9,1.215-3.3,2.078-2.8,1.729-6.7,4.06-11.047,6.583s-8.307,4.755-11.2,6.329c-1.445.789-2.621,1.413-3.44,1.834a9.231,9.231,0,0,1-1.293.613,9.257,9.257,0,0,1,1.215-.756l3.374-1.95,11.132-6.434,11.106-6.475L-21.564.679A9.179,9.179,0,0,1-20.3,0" transform="translate(51.758 0.003)" fill="#d5dbea"/>
        </g>
        <g id="g508" transform="translate(434.31 136.164)">
          <path id="path510" d="M-20.3,0a9.27,9.27,0,0,1-1.174.82c-.771.5-1.9,1.215-3.3,2.078-2.8,1.729-6.7,4.061-11.047,6.583s-8.307,4.755-11.2,6.33c-1.445.788-2.621,1.412-3.44,1.834a9.533,9.533,0,0,1-1.293.613,9.087,9.087,0,0,1,1.215-.757l3.374-1.95,11.131-6.434,11.106-6.475L-21.564.679A9.3,9.3,0,0,1-20.3,0" transform="translate(51.758 0.003)" fill="#d5dbea"/>
        </g>
        <g id="g512" transform="translate(446.578 112.636)">
          <path id="path514" d="M-20.3,0a9.376,9.376,0,0,1-1.174.82c-.771.5-1.9,1.215-3.3,2.078-2.8,1.729-6.7,4.06-11.047,6.583s-8.307,4.755-11.2,6.329c-1.445.788-2.621,1.413-3.44,1.834a9.283,9.283,0,0,1-1.293.613,9.257,9.257,0,0,1,1.215-.756l3.374-1.95,11.131-6.434,11.106-6.474L-21.564.679A9.179,9.179,0,0,1-20.3,0" transform="translate(51.758 0.003)" fill="#d5dbea"/>
        </g>
        <g id="g516" transform="translate(459.304 139.498)">
          <path id="path518" d="M-41.3,0a4.5,4.5,0,0,1-.394.592A16.677,16.677,0,0,1-42.947,2.2a25.825,25.825,0,0,1-5.665,4.909A27.57,27.57,0,0,1-58.98,11.078a25.285,25.285,0,0,1-6.591.193,33.687,33.687,0,0,1-6.908-1.515c-4.613-1.489-8.8-3.425-12.792-4.618a27.493,27.493,0,0,0-10.894-1.25,15.758,15.758,0,0,0-6.976,2.358,12.727,12.727,0,0,0-1.6,1.242,4.547,4.547,0,0,1-.541.461,4.289,4.289,0,0,1,.483-.523,10.889,10.889,0,0,1,1.562-1.317A15.5,15.5,0,0,1-96.2,3.592,27.38,27.38,0,0,1-85.158,4.765c4.034,1.184,8.231,3.112,12.809,4.588a33.562,33.562,0,0,0,6.822,1.507,25.161,25.161,0,0,0,6.486-.166A27.666,27.666,0,0,0-48.772,6.86a26.983,26.983,0,0,0,5.7-4.765c.606-.643,1.019-1.189,1.309-1.553A4.55,4.55,0,0,1-41.3,0" transform="translate(105.278 0)" fill="#fff"/>
        </g>
        <g id="g520" transform="translate(478.105 101.42)">
          <path id="path522" d="M-18.313,0a6.5,6.5,0,0,1-.934.737c-.614.459-1.541,1.07-2.716,1.777a44.785,44.785,0,0,1-4.263,2.244,50.066,50.066,0,0,1-5.507,2.116,50.036,50.036,0,0,1-5.735,1.4,44.777,44.777,0,0,1-4.781.582c-1.368.089-2.479.113-3.244.085a6.447,6.447,0,0,1-1.188-.074A6.439,6.439,0,0,1-45.5,8.772c.763-.022,1.866-.092,3.222-.217s2.966-.343,4.735-.668A55.021,55.021,0,0,0-31.86,6.47,55.283,55.283,0,0,0-26.386,4.4c1.641-.741,3.09-1.473,4.273-2.148S-19.98,1.015-19.34.6A6.4,6.4,0,0,1-18.313,0" transform="translate(46.683 0.003)" fill="#fff"/>
        </g>
        <g id="g524" transform="translate(438.524 185.91)">
          <path id="path526" d="M-15.271-8.194a5.788,5.788,0,0,1-.837-.709l-2.22-1.988a90.049,90.049,0,0,0-7.716-6.068,24.644,24.644,0,0,0-4.67-2.639,12.944,12.944,0,0,0-4.232-.988,11.559,11.559,0,0,0-3.98.537c-.006-.013.079-.062.247-.143a5.806,5.806,0,0,1,.762-.295,9.094,9.094,0,0,1,2.981-.4,12.681,12.681,0,0,1,4.366.925A23.732,23.732,0,0,1-25.8-17.306a71.831,71.831,0,0,1,7.675,6.193c.925.86,1.647,1.582,2.134,2.092a5.232,5.232,0,0,1,.724.826" transform="translate(38.926 20.888)" fill="#fff"/>
        </g>
        <g id="g528" transform="translate(494.359 211.604)">
          <path id="path530" d="M-22.756-1.387c.01.011-.086.109-.279.286s-.471.445-.865.746a22.845,22.845,0,0,1-3.507,2.323,25.29,25.29,0,0,1-13.426,3A25.28,25.28,0,0,1-53.8.359,22.8,22.8,0,0,1-57-2.372c-.355-.348-.594-.652-.768-.847a1.405,1.405,0,0,1-.241-.317,14.371,14.371,0,0,1,1.125,1.047,26.646,26.646,0,0,0,3.254,2.6,25.868,25.868,0,0,0,12.82,4.435A25.861,25.861,0,0,0-27.546,1.7,26.571,26.571,0,0,0-24-.486a14.341,14.341,0,0,1,1.244-.9" transform="translate(58.007 3.537)" fill="#fff"/>
        </g>
        <g id="g532" transform="translate(406.769 245.947)">
          <path id="path534" d="M-99.046-9.862s-.1-.111-.283-.34l-.795-1.019a31.662,31.662,0,0,0-3.321-3.679l-1.274-1.132-.687-.609-.773-.571-1.647-1.219-1.884-1.161a38.426,38.426,0,0,0-9.551-3.986,36.658,36.658,0,0,0-12.469-1.087,33.925,33.925,0,0,0-13.662,4.231c-4.429,2.516-8.565,5.945-12.978,9.321a67.731,67.731,0,0,1-7,4.8,31.1,31.1,0,0,1-8.07,3.393,27.436,27.436,0,0,1-8.727.706A39.05,39.05,0,0,1-190.523-3.8a83.673,83.673,0,0,1-14.738-6.318c-4.536-2.344-8.824-4.619-13.021-6.327A43.59,43.59,0,0,0-230.392-19.7a29.613,29.613,0,0,0-10.29.777,21.791,21.791,0,0,0-7.1,3.2,19.02,19.02,0,0,0-3.641,3.338c-.332.444-.589.788-.774,1.033s-.275.345-.275.345.075-.129.239-.369.425-.606.742-1.063a18.408,18.408,0,0,1,3.613-3.419,21.743,21.743,0,0,1,7.139-3.29A29.669,29.669,0,0,1-230.363-20a43.644,43.644,0,0,1,12.213,3.229c4.225,1.7,8.53,3.972,13.067,6.3A83.788,83.788,0,0,0-190.407-4.2a38.846,38.846,0,0,0,8.266,1.569,27.072,27.072,0,0,0,8.594-.7,30.732,30.732,0,0,0,7.962-3.346,67.813,67.813,0,0,0,6.966-4.77c4.405-3.363,8.562-6.8,13.036-9.331a31.323,31.323,0,0,1,3.414-1.663c.579-.238,1.142-.5,1.722-.713l1.753-.549a34.7,34.7,0,0,1,6.936-1.316,36.794,36.794,0,0,1,12.575,1.148,38.316,38.316,0,0,1,9.594,4.071l1.887,1.183,1.647,1.24.772.582.684.62,1.269,1.153a29.58,29.58,0,0,1,3.274,3.745l.762,1.046c.17.237.248.364.248.364" transform="translate(252.475 25.14)" fill="#fff"/>
        </g>
        <g id="g536" transform="translate(500.867 292.463)">
          <path id="path538" d="M-25.721-3.688a1.606,1.606,0,0,1-.391.164l-1.152.395a18.125,18.125,0,0,1-1.85.544c-.73.18-1.553.424-2.49.575l-1.461.274c-.509.091-1.046.138-1.6.213-1.1.165-2.294.216-3.545.3a48.386,48.386,0,0,1-8.136-.413,48.5,48.5,0,0,1-7.927-1.89c-1.178-.428-2.307-.812-3.319-1.281-.51-.226-1.011-.422-1.474-.653l-1.326-.673c-.856-.408-1.577-.875-2.227-1.252a18.193,18.193,0,0,1-1.622-1.041c-.4-.282-.728-.514-1-.7a1.553,1.553,0,0,1-.33-.268,1.7,1.7,0,0,1,.378.2l1.036.635c.443.285.99.626,1.652.976s1.385.8,2.244,1.189l1.329.643c.463.222.964.408,1.472.627,1.01.451,2.134.819,3.305,1.234a50.7,50.7,0,0,0,7.864,1.841,50.726,50.726,0,0,0,8.062.442c1.241-.069,2.423-.106,3.519-.257.549-.066,1.083-.1,1.589-.186l1.456-.246c.933-.131,1.756-.354,2.487-.51s1.355-.322,1.86-.472L-26.14-3.6a1.584,1.584,0,0,1,.419-.084" transform="translate(65.565 9.402)" fill="#fff"/>
        </g>
        <g id="g540" transform="translate(256.314 160.027)">
          <path id="path542" d="M-74.665-12.573l-5.675-.886-35.144-11.335-20.552-5.939a22.112,22.112,0,0,0-17.784,1.211C-163.528-24.574-190.326.363-190.326.363l19.293,19.891-9.088,40.253c10.17,28.914,30.08,32.227,30.08,32.227a70.575,70.575,0,0,0,28.521-4.716c18.489-7.052,37.9-23.573,40.328-30.678,1.459-4.265,2.662-13.221,3.62-23.342L-48.3,22.067l7.931-40.488Z" transform="translate(190.326 32.048)" fill="#e62e38"/>
        </g>
        <g id="g544" transform="translate(297.181 244.162)">
          <path id="path546" d="M-20.688-4.518c.009.012-.089.1-.284.251s-.477.388-.875.643a19.923,19.923,0,0,1-3.518,1.89A21.935,21.935,0,0,1-38.348-.515,21.938,21.938,0,0,1-49.642-7.036a19.848,19.848,0,0,1-2.41-3.186c-.255-.4-.408-.731-.527-.948a1.315,1.315,0,0,1-.154-.347,13.008,13.008,0,0,1,.82,1.206,22.94,22.94,0,0,0,2.488,3.069A22.349,22.349,0,0,0-38.258-.926,22.36,22.36,0,0,0-25.478-2.01a22.976,22.976,0,0,0,3.542-1.753,13.315,13.315,0,0,1,1.248-.755" transform="translate(52.735 11.517)" fill="#1a2e35"/>
        </g>
        <g id="g548" transform="translate(275.607 168.951)">
          <path id="path550" d="M-27.439,0a.742.742,0,0,1,.063.193c.038.153.086.342.143.574.123.5.292,1.253.5,2.219a53.77,53.77,0,0,1,1.158,8.291,26.261,26.261,0,0,1-.332,5.789,18.646,18.646,0,0,1-2.309,6.242,24.73,24.73,0,0,1-4.806,5.566c-1.9,1.7-4.013,3.28-6.158,4.909-4.565,3.432-9.013,6.535-12.987,9.351s-7.482,5.345-10.286,7.467l-.09.068-.085-.069a61.589,61.589,0,0,1-5.627-5.064,15.808,15.808,0,0,1-1.317-1.555,5.241,5.241,0,0,1-.287-.443.578.578,0,0,1-.083-.159,6.834,6.834,0,0,1,.433.554,19.785,19.785,0,0,0,1.364,1.494,68.988,68.988,0,0,0,5.693,4.949h-.175c2.782-2.158,6.267-4.725,10.235-7.555s8.4-5.948,12.956-9.375c2.142-1.627,4.249-3.2,6.139-4.881a24.537,24.537,0,0,0,4.747-5.459,18.407,18.407,0,0,0,2.3-6.1,26.341,26.341,0,0,0,.378-5.713A58.771,58.771,0,0,0-26.9,3.017q-.266-1.415-.42-2.233c-.041-.236-.075-.427-.1-.583a.715.715,0,0,1-.021-.2" transform="translate(69.945 0)" fill="#1a2e35"/>
        </g>
        <g id="g552" transform="translate(305.894 75.216)">
          <path id="path554" d="M-106.393-72.287a25.883,25.883,0,0,0,6.489-29.6l-11.591-1.2a16.536,16.536,0,0,0,8.428-16.679,22.126,22.126,0,0,1-25.3,4.659c-5.415-2.677-9.8-7.659-15.751-8.7-5.4-.948-10.706,1.583-15.87,3.42s-11.429,2.848-15.706-.578c-3.392-2.716-4.443-7.475-4.222-11.814s1.475-8.572,1.743-12.908a29.319,29.319,0,0,0-9.388-22.864,22.818,22.818,0,0,0-12.614-14.023,22.751,22.751,0,0,0-22.318,2.912c-2.535,1.963-4.676,4.493-7.55,5.914-3.246,1.605-7.024,1.6-10.54,2.47s-7.206,3.194-7.583,6.8l-1.415,7.382c-.238.528-.489,1.051-.776,1.556-2.987,5.239-9.1,8.684-10.431,14.567-.748,3.3.181,6.868-.931,10.062-1.464,4.2-6,6.568-8.116,10.484-2.9,5.379-.933,14.8,3.708,18.775s14.215,8.185,20.193,9.455c1.621-6.214,3.052-12.857,4.443-19.657,2.438,2.339,4.993,4.572,7.536,6.78,6.659,5.782,13.454,11.661,18.073,19.174,8.776,14.279,8.924,33.2,19.972,45.808a17.818,17.818,0,0,0,7.94,5.625c3.145.953,6.873.449,9.2-1.872,2.745-2.738,3.1-7.355,6.137-9.764,4.038-3.2,9.936-.647,14.275,2.129,3.141,2.01,6.282,4.136,9.846,5.237s7.7,1.03,10.732-1.144,4.361-6.8,2.175-9.827c-.874-1.208-2.181-2.052-3.047-3.265s-1.118-3.135.069-4.038c1.31-1,3.146-.035,4.565.8a27.566,27.566,0,0,0,23.237,2.049A27.565,27.565,0,0,0-94.538-70.9a22.558,22.558,0,0,1-11.854-1.389" transform="translate(271.203 184.264)" fill="#1a2e35"/>
        </g>
        <g id="g556" transform="translate(386.756 89.094)">
          <path id="path558" d="M-49.535-22.278a9.7,9.7,0,0,1,1.048.9A12.23,12.23,0,0,1-46.1-18.229a8.987,8.987,0,0,1,.891,2.73,6.4,6.4,0,0,1-.393,3.388,6.451,6.451,0,0,1-2.492,3.022,4.859,4.859,0,0,1-2.043.736,4.647,4.647,0,0,1-2.267-.33c-3.008-1.225-4.516-4.7-7.77-6.25-3.169-1.676-7.22-1.791-11.113-.9-3.936.9-7.685,3.008-11.519,5.16s-7.909,4.462-12.6,5.268a17.678,17.678,0,0,1-6.969-.048,13.509,13.509,0,0,1-3.222-1.2,12.493,12.493,0,0,1-2.721-2.015,15.364,15.364,0,0,1-3.488-5.523,25.025,25.025,0,0,1-1.43-6.1,95.213,95.213,0,0,1-.051-11.53,33.838,33.838,0,0,0-.983-9.9,22.741,22.741,0,0,0-1.545-4.058,23.371,23.371,0,0,0-1.965-3.343,24.857,24.857,0,0,0-4.145-4.621,26.957,26.957,0,0,0-3.166-2.337l-.883-.523a2.331,2.331,0,0,1-.294-.19,2.049,2.049,0,0,1,.315.152l.906.487a24.787,24.787,0,0,1,3.229,2.286,24.556,24.556,0,0,1,4.231,4.61,23.409,23.409,0,0,1,2.012,3.36,22.917,22.917,0,0,1,1.592,4.1,33.922,33.922,0,0,1,1.045,9.986,95.962,95.962,0,0,0,.088,11.481,24.723,24.723,0,0,0,1.419,6,14.993,14.993,0,0,0,3.4,5.372A12.086,12.086,0,0,0-105.4-7.018a13.078,13.078,0,0,0,3.118,1.155,17.276,17.276,0,0,0,6.8.042c4.6-.788,8.64-3.072,12.472-5.212s7.618-4.268,11.633-5.178a20.181,20.181,0,0,1,5.938-.5,15.7,15.7,0,0,1,2.832.458,12.844,12.844,0,0,1,2.593,1.013c3.359,1.647,4.873,5.136,7.719,6.284a4.35,4.35,0,0,0,4.058-.357A6.221,6.221,0,0,0-45.821-12.2a6.186,6.186,0,0,0,.412-3.27,8.916,8.916,0,0,0-.839-2.684,12.681,12.681,0,0,0-2.3-3.166c-.315-.322-.566-.558-.737-.712a2.17,2.17,0,0,1-.252-.245" transform="translate(126.269 56.787)" fill="#1a2e35"/>
        </g>
        <g id="g560" transform="translate(298.285 76.461)">
          <path id="path562" d="M-21.143-60.626s-.03-.124-.068-.366a6.491,6.491,0,0,0-.216-1.063,9.1,9.1,0,0,0-1.991-3.615A15.459,15.459,0,0,0-28.79-69.4a37.921,37.921,0,0,0-8.458-2.2c-3.168-.623-6.809-1.282-10.066-3.456a15.179,15.179,0,0,1-6.421-10.18,15.173,15.173,0,0,1,4.039-12.6c3.352-3.442,8.095-5.147,11.97-8.174a15.148,15.148,0,0,0,2.55-2.6,10.74,10.74,0,0,0,1.555-3.205,39.512,39.512,0,0,0,.81-7.05,15.681,15.681,0,0,1,.648-3.461,8.657,8.657,0,0,1,1.706-3.026,12.13,12.13,0,0,1,5.8-3.227c2.082-.6,4.151-.982,6.109-1.522a16.639,16.639,0,0,0,5.334-2.386,20.508,20.508,0,0,0,4-3.743,44.876,44.876,0,0,0,3.016-4.1c1.79-2.711,3.322-5.245,4.954-7.269a23.4,23.4,0,0,1,4.727-4.665,13.149,13.149,0,0,1,3.73-1.92,9.047,9.047,0,0,1,1.42-.357c.008.029-.491.122-1.392.438a13.6,13.6,0,0,0-3.662,1.971,23.646,23.646,0,0,0-4.638,4.677c-1.6,2.025-3.109,4.555-4.889,7.288a44.69,44.69,0,0,1-3.016,4.146,20.8,20.8,0,0,1-4.051,3.821,16.979,16.979,0,0,1-5.434,2.456c-1.975.551-4.046.935-6.1,1.537a11.771,11.771,0,0,0-5.606,3.123,8.246,8.246,0,0,0-1.618,2.886,15.287,15.287,0,0,0-.626,3.371,39.562,39.562,0,0,1-.818,7.126,11.174,11.174,0,0,1-1.618,3.34,15.533,15.533,0,0,1-2.629,2.677,55.581,55.581,0,0,1-6.229,3.959A26.943,26.943,0,0,0-49.4-97.551,14.792,14.792,0,0,0-53.35-85.3a14.839,14.839,0,0,0,6.233,9.948c3.167,2.134,6.763,2.812,9.926,3.452a37.788,37.788,0,0,1,8.5,2.278,15.493,15.493,0,0,1,5.4,3.842,8.973,8.973,0,0,1,1.949,3.7A5.747,5.747,0,0,1-21.168-61c.023.246.025.371.025.371" transform="translate(53.895 154.541)" fill="#1a2e35"/>
        </g>
        <g id="g564" transform="translate(383.688 87.279)">
          <path id="path566" d="M-7.774-6.687A1.892,1.892,0,0,1-8.4-6.845a14.642,14.642,0,0,1-1.62-.655,21.338,21.338,0,0,1-4.836-3.133,21.363,21.363,0,0,1-3.821-4.315,14.606,14.606,0,0,1-.888-1.5,1.87,1.87,0,0,1-.25-.593c.061-.034.519.751,1.382,1.925a25.6,25.6,0,0,0,3.852,4.166A25.637,25.637,0,0,0-9.884-7.767c1.289.679,2.134,1.014,2.11,1.08" transform="translate(19.816 17.046)" fill="#375a64"/>
        </g>
        <g id="g568" transform="translate(390.191 142.728)">
          <path id="path570" d="M-20.963-6.568c-.012.037-.508-.125-1.424-.323a23.513,23.513,0,0,0-3.931-.482,52.1,52.1,0,0,0-5.889.167c-2.216.157-4.664.383-7.249.327a19.742,19.742,0,0,1-7.151-1.344,12.655,12.655,0,0,1-4.8-3.5,9.014,9.014,0,0,1-1.845-3.555,6.358,6.358,0,0,1-.169-1.079,1.245,1.245,0,0,1-.006-.381c.049-.006.072.52.335,1.416a9.374,9.374,0,0,0,1.913,3.406,12.648,12.648,0,0,0,4.719,3.337A19.833,19.833,0,0,0-39.447-7.3c2.553.057,4.99-.156,7.214-.293a47.194,47.194,0,0,1,5.93-.077,20.267,20.267,0,0,1,3.955.621c.456.129.805.238,1.037.331a1.292,1.292,0,0,1,.348.152" transform="translate(53.436 16.743)" fill="#375a64"/>
        </g>
        <g id="g572" transform="translate(385.55 157.604)">
          <path id="path574" d="M-54.787-20.751a1.2,1.2,0,0,1-.235.107,3.607,3.607,0,0,1-.724.231,5.689,5.689,0,0,1-2.9-.13A9.3,9.3,0,0,1-62.535-23a16.144,16.144,0,0,1-3.124-5.241,39.4,39.4,0,0,0-3.072-6.663A17.445,17.445,0,0,0-71.3-38.044a20.712,20.712,0,0,0-3.437-2.6c-5.088-3.067-11.772-4.324-18.6-3.924-6.861.36-13.317,1.7-19.288,2.122a38.125,38.125,0,0,1-15.723-1.625,21.717,21.717,0,0,1-9.013-5.647,12.329,12.329,0,0,1-1.078-1.291,7.833,7.833,0,0,1-.7-1.013l-.394-.647a1.192,1.192,0,0,1-.121-.228,1.217,1.217,0,0,1,.158.2l.427.622a8.308,8.308,0,0,0,.73.983,12.705,12.705,0,0,0,1.1,1.255,21.966,21.966,0,0,0,8.99,5.477,38.237,38.237,0,0,0,15.6,1.519c5.938-.435,12.388-1.792,19.3-2.157,6.883-.4,13.653.875,18.82,4.014a21.07,21.07,0,0,1,3.492,2.663,17.725,17.725,0,0,1,2.61,3.219,39.011,39.011,0,0,1,3.052,6.737,16.077,16.077,0,0,0,3.018,5.191A9.244,9.244,0,0,0-58.6-20.7a5.769,5.769,0,0,0,2.835.2c.649-.12.964-.288.976-.254" transform="translate(139.655 52.895)" fill="#375a64"/>
        </g>
        <g id="g576" transform="translate(330.175 93.775)">
          <path id="path578" d="M-8.263-2.49a6.058,6.058,0,0,0-6.175,5.383l-6.553,68.235c-1.133,9.6,11.417,30.165,21.7,31.3,10.385,1.146,11.4-3.886,12.749-12.977,2.255-15.19,3-20.906,3-20.818,0,0,13.372-.449,18.331-17.164,2.466-8.313,3.873-22.29,4.655-33.764.7-10.327-4.427-23.787-14.774-24.052Z" transform="translate(21.063 6.347)" fill="#ffbf9d"/>
        </g>
        <g id="g580" transform="translate(381.75 124.6)">
          <path id="path582" d="M-2.846-1.472A2.208,2.208,0,0,1-5.249.459a2.113,2.113,0,0,1-2-2.271,2.21,2.21,0,0,1,2.4-1.932,2.114,2.114,0,0,1,2,2.273" transform="translate(7.255 3.751)" fill="#1a2e35"/>
        </g>
        <g id="g584" transform="translate(378.369 120.434)">
          <path id="path586" d="M-5.627-1.311c-.253.306-2.009-.813-4.379-.642-2.37.137-4.025,1.477-4.3,1.2-.135-.12.107-.658.826-1.262a6.051,6.051,0,0,1,3.419-1.32,5.811,5.811,0,0,1,3.509.869c.769.508,1.052,1.011.926,1.149" transform="translate(14.344 3.342)" fill="#1a2e35"/>
        </g>
        <g id="g588" transform="translate(356.588 125.667)">
          <path id="path590" d="M-5.631-1.579c-.283.28-1.922-1.006-4.3-1.066-2.372-.1-4.15,1.078-4.4.779-.123-.133.168-.644.946-1.176a6.058,6.058,0,0,1,3.531-.98A5.824,5.824,0,0,1-6.44-2.813c.713.581.947,1.108.809,1.234" transform="translate(14.353 4.024)" fill="#1a2e35"/>
        </g>
        <g id="g592" transform="translate(369.735 120.887)">
          <path id="path594" d="M0-12.764a15.743,15.743,0,0,1,3.918-.186c.61.017,1.2-.028,1.351-.425A3.083,3.083,0,0,0,5.1-15.212q-.56-2.295-1.176-4.815c-1.612-6.848-2.693-12.447-2.418-12.51S3.316-27.1,4.926-20.251q.575,2.53,1.1,4.833a3.515,3.515,0,0,1,0,2.4,1.528,1.528,0,0,1-1.106.749,4.151,4.151,0,0,1-1.04.007c-2.4-.186-3.888-.37-3.88-.506" transform="translate(0 32.537)" fill="#1a2e35"/>
        </g>
        <g id="g596" transform="translate(345.63 159.644)">
          <path id="path598" d="M-14.241-5.881A43.808,43.808,0,0,1-36.3-14.992s4.221,12.5,21.52,13.151Z" transform="translate(36.303 14.992)" fill="#ff9a6c"/>
        </g>
        <g id="g600" transform="translate(354.834 121.014)">
          <path id="path602" d="M-6.977-1.961c-.375.575-2.616-.263-5.408-.572-2.785-.364-5.16-.081-5.388-.729-.1-.308.422-.81,1.45-1.213A9.039,9.039,0,0,1-12.1-4.928a9.029,9.029,0,0,1,4,1.445c.9.634,1.288,1.247,1.121,1.522" transform="translate(17.784 4.998)" fill="#1a2e35"/>
        </g>
        <g id="g604" transform="translate(378.63 117.025)">
          <path id="path606" d="M-5.232-1.456c-.389.56-2.053.084-4.021.159-1.971,0-3.613.548-4.025,0-.181-.265.053-.818.754-1.365A5.566,5.566,0,0,1-9.3-3.71a5.569,5.569,0,0,1,3.261.92c.724.519.98,1.062.809,1.335" transform="translate(13.336 3.711)" fill="#1a2e35"/>
        </g>
        <g id="g608" transform="translate(363.329 144.105)">
          <path id="path610" d="M-.432-.553a5.066,5.066,0,0,1,3.713-.775,2.9,2.9,0,0,1,1.73.9,3.663,3.663,0,0,1,.6,2.477,4.86,4.86,0,0,1-.231,1.54,2,2,0,0,1-.99,1.159,2.749,2.749,0,0,1-1.585.084,6.192,6.192,0,0,1-2.5-.906,3.107,3.107,0,0,1-1.4-2.189A2.1,2.1,0,0,1,.161-.421" transform="translate(1.102 1.409)" fill="#ff9a6c"/>
        </g>
        <g id="g612" transform="translate(361.913 144.729)">
          <path id="path614" d="M-5.474-3.511c-.174.061-.485-.455-1.056-1.164a9.228,9.228,0,0,0-2.6-2.275,9.242,9.242,0,0,0-3.283-1.078c-.9-.128-1.5-.133-1.54-.314-.036-.159.529-.479,1.556-.58A6.738,6.738,0,0,1-8.5-8.051,6.74,6.74,0,0,1-5.767-5.146c.435.934.448,1.585.293,1.634" transform="translate(13.953 8.951)" fill="#1a2e35"/>
        </g>
        <g id="g616" transform="translate(321.014 135.867)">
          <path id="path618" d="M-5.372-19.81C.253-20.929,4.6-25.768,6.533-31.168s1.837-11.3,1.322-17.018A2.735,2.735,0,0,0,7.084-50.2c-.852-.656-2.074-.122-2.992.438A95.107,95.107,0,0,0-6.1-42.592c-3.011,2.428-6,5.225-7.154,8.917A11.445,11.445,0,0,0-5.527-19.749" transform="translate(13.695 50.498)" fill="#1a2e35"/>
        </g>
        <g id="g620" transform="translate(383.36 98.598)">
          <path id="path622" d="M-48.685-43.018l-26.56-42.688-7.336-15.02s-2.339-3.1-4.772-5.753c-3.991-4.351-7.933-.969-7.933-.969a2.693,2.693,0,0,0-2.665-1.644,4.536,4.536,0,0,0-3.673,1.872s-1.086-1.209-4.1-1.4a3.167,3.167,0,0,0-1.909.617c-.984-.868-2.8-2.12-4.542-1.484-1.363.5-9.619,6.774-11.652,9.935-1,1.561.862,3.591,3.372,2.641a21.814,21.814,0,0,0,3.012-1.226,8.167,8.167,0,0,0,2.043-1.642s-2.082,3.648-.006,4.288a4.773,4.773,0,0,0,3.909-.949c.791-.669,1.709-1.535,2.574-2.384-.034.049-.07.1-.1.145-1.151,1.7,1.85,4.222,3.3,3.2a21.563,21.563,0,0,0,1.938-1.534c3.371,2.446-1.311,5.58-3.287,5.42a60.911,60.911,0,0,0-9.14-.029,6.534,6.534,0,0,0-4.179,1.5c-1.115,1.148.053,3.566,1.636,3.81,2.908.449,6.617,1.1,10.476,2.088,4.542,1.168,16.424,5.03,16.424,5.03l1.158.943,16.154,39.388L-102.194-33l-6.173,35.033L-58.452-11.51c11.249-5.847,16.574-20.813,9.767-31.508" transform="translate(124.102 109.657)" fill="#ffbf9d"/>
        </g>
        <g id="g624" transform="translate(386.794 115.087)">
          <path id="path626" d="M-18.6-9.024a3.74,3.74,0,0,1-.633-.151l-1.792-.51-6.567-1.954-4.528-1.368c-1.625-.5-3.366-1.022-5.215-1.492a49.615,49.615,0,0,0-5.848-1.209,10.168,10.168,0,0,1-3.173-.572,2.219,2.219,0,0,1-.714-.532,1.215,1.215,0,0,1-.241-.433l-.062-.433a4.157,4.157,0,0,1,.105-1.719,2.381,2.381,0,0,1,1.149-1.33,8.8,8.8,0,0,1,1.546-.613,10.378,10.378,0,0,1,3.2-.393c2.1.028,4.091.319,5.988.242a19.248,19.248,0,0,0,2.751-.27c.881-.16,1.727-.391,2.552-.6a13.556,13.556,0,0,1,4.721-.6A12.848,12.848,0,0,1-21.55-22a23.948,23.948,0,0,1,2.656,1.3c.707.4,1.241.728,1.6.951a3.694,3.694,0,0,1,.539.366,3.748,3.748,0,0,1-.582-.293l-1.639-.881a26.3,26.3,0,0,0-2.664-1.228,12.8,12.8,0,0,0-3.743-.89,13.378,13.378,0,0,0-4.61.642c-.82.219-1.672.459-2.573.629a19.43,19.43,0,0,1-2.806.294c-1.933.088-3.944-.2-6-.218a10.029,10.029,0,0,0-3.072.379c-.991.323-2.122.675-2.424,1.676a3.791,3.791,0,0,0-.087,1.539l.05.376a.848.848,0,0,0,.157.269,1.824,1.824,0,0,0,.577.425,10.051,10.051,0,0,0,3.039.538,48.86,48.86,0,0,1,5.893,1.243c1.856.482,3.594,1.016,5.216,1.531l4.515,1.419,6.529,2.082,1.77.587a3.75,3.75,0,0,1,.608.232" transform="translate(47.415 23.003)" fill="#ff9a6c"/>
        </g>
        <g id="g628" transform="translate(383.118 98.833)">
          <path id="path630" d="M-7.76,0c.042.067-1.252.817-3.163,2.265A32.62,32.62,0,0,0-14.1,5.015c-1.134,1.105-2.328,2.4-3.733,3.6a3.89,3.89,0,0,0-1.495,2,1.51,1.51,0,0,0,.141,1.09,1.506,1.506,0,0,0,.838.647,4.24,4.24,0,0,0,2.137.041,10.226,10.226,0,0,0,1.86-.532,13.62,13.62,0,0,0,3.288-2,3.431,3.431,0,0,1-.731.758,9.526,9.526,0,0,1-2.444,1.515,9.978,9.978,0,0,1-1.906.6,4.532,4.532,0,0,1-2.331-.017,1.9,1.9,0,0,1-1.057-.81,1.911,1.911,0,0,1-.2-1.378A4.234,4.234,0,0,1-18.109,8.3c1.386-1.189,2.578-2.464,3.739-3.566A28.9,28.9,0,0,1-11.1,2.023c.984-.7,1.821-1.21,2.406-1.548A4.984,4.984,0,0,1-7.76,0" transform="translate(19.781 0.004)" fill="#ff9a6c"/>
        </g>
        <g id="g632" transform="translate(390.691 99.649)">
          <path id="path634" d="M-9.41-1.64a9.758,9.758,0,0,1-.936,1.115l-2.667,2.933-3.995,4.313a9.665,9.665,0,0,1-2.806,2.141,4.3,4.3,0,0,1-1.857.463,2.587,2.587,0,0,1-1.867-.746,1.8,1.8,0,0,1-.442-1.011,3.1,3.1,0,0,1,.108-1.041,6.127,6.127,0,0,1,.859-1.77l.006-.009.014-.015c1.429-1.519,2.758-2.945,3.954-4.255,1.215-1.291,2.383-2.344,3.331-3.238a6.812,6.812,0,0,1,1.386-1.117,3.436,3.436,0,0,1,1.313-.285c.714-.049,1.138.015,1.1.092a3.461,3.461,0,0,0-1.087.052,3.5,3.5,0,0,0-1.226.324,6.953,6.953,0,0,0-1.3,1.126c-.927.923-2.069,1.995-3.255,3.291-1.163,1.311-2.494,2.765-3.923,4.3L-22.678,5a5.782,5.782,0,0,0-.788,1.639,2.712,2.712,0,0,0-.094.889,1.379,1.379,0,0,0,.335.77,2.187,2.187,0,0,0,1.557.61,3.921,3.921,0,0,0,1.678-.418,9.4,9.4,0,0,0,2.7-2.031c1.518-1.588,2.891-3.026,4.062-4.252l2.765-2.842.768-.758c.178-.17.277-.254.288-.245" transform="translate(23.987 4.179)" fill="#ff9a6c"/>
        </g>
        <g id="g636" transform="translate(414.698 105.581)">
          <path id="path638" d="M-1.926-.334c.043.031-.038.247-.32.472A1.727,1.727,0,0,1-3.59.469,1.731,1.731,0,0,1-4.741-.3C-4.93-.6-4.932-.836-4.882-.85s.161.156.376.369a1.892,1.892,0,0,0,.989.536A1.894,1.894,0,0,0-2.4-.115c.275-.128.43-.259.479-.22" transform="translate(4.91 0.852)" fill="#ff9a6c"/>
        </g>
        <g id="g640" transform="translate(416.725 106.591)">
          <path id="path642" d="M-1.246-2.082c-.088.071-.7-.539-1.232-1.446A3.477,3.477,0,0,1-3.151-5.3c.11-.046.515.684,1.037,1.561s.962,1.587.869,1.661" transform="translate(3.175 5.306)" fill="#ff9a6c"/>
        </g>
        <g id="g644" transform="translate(419.009 112.107)">
          <path id="path646" d="M-.926-7.873a5.406,5.406,0,0,1-.767-1.688,13.829,13.829,0,0,1-.667-4.43A13.852,13.852,0,0,1-1.576-18.4,5.42,5.42,0,0,1-.764-20.07a21.757,21.757,0,0,0-1.173,6.084A21.755,21.755,0,0,0-.926-7.873" transform="translate(2.361 20.07)" fill="#ff9a6c"/>
        </g>
        <g id="g648" transform="translate(432.667 169.515)">
          <path id="path650" d="M-6.191-7.056c-.079.009-.158-.86-.582-2.178a13.214,13.214,0,0,0-.958-2.225,14.754,14.754,0,0,0-1.7-2.426,14.689,14.689,0,0,0-2.188-1.995A13.164,13.164,0,0,0-13.7-17.117c-1.253-.591-2.1-.782-2.084-.859a1.743,1.743,0,0,1,.609.08,8.541,8.541,0,0,1,1.6.506A11.611,11.611,0,0,1-11.388-16.2a13.587,13.587,0,0,1,2.279,2.033,13.623,13.623,0,0,1,1.721,2.522,11.587,11.587,0,0,1,.9,2.322,8.545,8.545,0,0,1,.3,1.648,1.729,1.729,0,0,1,0,.615" transform="translate(15.78 17.987)" fill="#ff9a6c"/>
        </g>
        <g id="g652" transform="translate(228.347 193.757)">
          <path id="path654" d="M-78.261-41.784a11.5,11.5,0,0,0-6.745.861c-3.608-1.6-8.054,1.156-8.054,1.156-1.306-.623-9.166,4.512-9.166,4.512l-9.792,4.62L-164.3-69.484-149.483-84.9l-20.766-21.609-24.344,25.041a18.389,18.389,0,0,0-4.853,11.785,23.982,23.982,0,0,0,13.318,22.722l61.609,31.6a71.874,71.874,0,0,0,14.007-2.177c5.316-1.388,14.4-5.421,14.4-5.421a17.282,17.282,0,0,0,1.6,3.423c2.923,5.666,7.215-.447,7.215-.447a11.671,11.671,0,0,0,1.663,2.768c3.7,3.59,6.27-1.232,6.27-1.232s1.112,1.934,4.422.5-.477-11.393-.477-11.393,1.108,2.164,3.257-.575-2.554-11.127-6.1-11.864" transform="translate(199.494 106.51)" fill="#ffbf9d"/>
        </g>
        <g id="g656" transform="translate(342.184 259.483)">
          <path id="path658" d="M0-.231a1.719,1.719,0,0,1,.678-.26,4,4,0,0,1,1.984.059A7.668,7.668,0,0,1,5.283.907a10.118,10.118,0,0,1,1.3,1.164A7.372,7.372,0,0,1,7.6,3.653a39.7,39.7,0,0,1,2.394,6c.24.792.408,1.44.508,1.89a2.355,2.355,0,0,1,.111.713,25.8,25.8,0,0,1-.9-2.51A53.891,53.891,0,0,0,7.228,3.843a7.292,7.292,0,0,0-.954-1.5A10.341,10.341,0,0,0,5.045,1.215,7.915,7.915,0,0,0,2.581-.146,5.427,5.427,0,0,0,0-.231" transform="translate(0 0.588)" fill="#ff9a6c"/>
        </g>
        <g id="g660" transform="translate(334.453 262.573)">
          <path id="path662" d="M-9.052-12.424a4.769,4.769,0,0,1-.455-.9c-.306-.666-.69-1.5-1.145-2.483-.963-2.1-2.374-4.962-3.722-8.231A21.776,21.776,0,0,0-16.5-28.464a7.34,7.34,0,0,0-3.007-2.508,4.873,4.873,0,0,0-2.6-.463c-.628.084-.952.254-.969.213-.006-.014.07-.06.225-.138a2.7,2.7,0,0,1,.717-.237,4.758,4.758,0,0,1,2.74.352,7.432,7.432,0,0,1,3.205,2.556,20.8,20.8,0,0,1,2.2,4.494c1.34,3.25,2.71,6.137,3.6,8.27.453,1.064.8,1.933,1.025,2.54a4.478,4.478,0,0,1,.3.961" transform="translate(23.074 31.67)" fill="#ff9a6c"/>
        </g>
        <g id="g664" transform="translate(324.479 266.65)">
          <path id="path666" d="M0-1.722a4.232,4.232,0,0,1,.834-.465L3.171-3.313c.5-.231,1.027-.492,1.636-.754a4.587,4.587,0,0,1,2.1-.305,4.368,4.368,0,0,1,2.2.84,6.934,6.934,0,0,1,1.609,1.917c.444.724.792,1.475,1.137,2.177s.7,1.369,1.055,2c.7,1.26,1.369,2.386,1.861,3.372A19.921,19.921,0,0,1,15.8,8.323a3.711,3.711,0,0,1,.26.92c-.071.026-.507-1.26-1.563-3.17-.519-.958-1.206-2.062-1.934-3.32-.363-.629-.732-1.3-1.087-2.006s-.7-1.44-1.127-2.142A6.7,6.7,0,0,0,8.854-3.2a4.026,4.026,0,0,0-1.986-.783,4.293,4.293,0,0,0-1.936.246c-.58.233-1.138.489-1.639.7L.9-2.037a4.1,4.1,0,0,1-.9.315" transform="translate(0.001 4.39)" fill="#ff9a6c"/>
        </g>
        <g id="g668" transform="translate(306.493 265.008)">
          <path id="path670" d="M-12.344,0a3.294,3.294,0,0,1-.715.452c-.472.267-1.161.64-2.018,1.093-1.712.907-4.092,2.133-6.732,3.464S-26.849,7.522-28.6,8.359c-.873.42-1.584.752-2.079.973a3.18,3.18,0,0,1-.789.3,3.321,3.321,0,0,1,.715-.451c.472-.266,1.163-.638,2.018-1.091C-27.018,7.187-24.639,5.961-22,4.63s5.041-2.515,6.788-3.354C-14.338.858-13.628.524-13.132.3A3.271,3.271,0,0,1-12.344,0" transform="translate(31.466 0.006)" fill="#ff9a6c"/>
        </g>
        <g id="g672" transform="translate(252.101 230.138)">
          <path id="path674" d="M-7.831-.47a26.857,26.857,0,0,0-6.174-.2A26.892,26.892,0,0,0-19.962.965a5.643,5.643,0,0,1,1.606-.9,15.471,15.471,0,0,1,4.3-1.153A15.457,15.457,0,0,1-9.6-.974a5.6,5.6,0,0,1,1.773.5" transform="translate(19.962 1.198)" fill="#ff9a6c"/>
        </g>
        <g id="g676" transform="translate(314.789 90.496)">
          <path id="path678" d="M-41.909-.01A163.166,163.166,0,0,0-80.418,4.055c-2.925.667-6.019,1.526-8,3.781-2.093,2.386-2.463,5.782-2.737,8.945l-1,11.546A26.236,26.236,0,0,1-94,31.079c-3.047,3.978-6.928,7.3-9.7,11.472s-4.3,9.72-2.044,14.2c1.364,2.707,3.893,4.614,5.742,7.018,3.134,4.073,4.157,9.328,5.989,14.129s5.135,9.7,10.184,10.665c2.406.459,4.907-.05,7.33.3,3.624.53,6.666,2.9,9.55,5.161s6,4.567,9.645,4.928,7.817-2.1,7.894-5.765a8.566,8.566,0,0,1-8.809-.247c-2.124-1.4-3.493-3.666-5.317-5.436-4.477-4.342-11.693-5.72-14.808-11.123-2.463-4.274-1.486-9.624-.368-14.429.969-4.167,1.951-8.684.75-12.685a14.7,14.7,0,0,0,.148-1.944c.031-4.263-1.658-8.83.327-12.6,2.624-4.988,10.193-5.617,12.846-10.59,1.542-2.89,1-6.585,2.685-9.4,1.584-2.641,4.75-3.86,7.761-4.514s6.185-.958,8.846-2.509,4.638-4.885,3.436-7.721" transform="translate(106.83 0.026)" fill="#1a2e35"/>
        </g>
        <g id="g680" transform="translate(338.954 134.525)">
          <path id="path682" d="M-32.648-27.708a1,1,0,0,1-.123.2c-.1.146-.233.332-.4.564a11.291,11.291,0,0,1-1.864,1.885,12.6,12.6,0,0,1-3.7,1.984,12.829,12.829,0,0,1-5.515.64,11.582,11.582,0,0,1-6.2-2.543c-1.932-1.484-3.65-3.448-5.827-5.019a8.355,8.355,0,0,0-3.713-1.559,8.138,8.138,0,0,0-4.13.749,20.782,20.782,0,0,1-4.29,1.48,7.546,7.546,0,0,1-4.614-.821,23.108,23.108,0,0,1-3.894-2.584,31.017,31.017,0,0,1-3.42-2.972,10.679,10.679,0,0,1-2.432-3.666,7.484,7.484,0,0,1-.276-4.209,22.893,22.893,0,0,1,1.224-3.8c.469-1.2.873-2.369,1.232-3.517a48.186,48.186,0,0,0,1.5-6.515,47.905,47.905,0,0,0,.523-9.666c-.051-1.145-.124-2.033-.185-2.633-.025-.281-.045-.506-.061-.685a.993.993,0,0,1-.006-.235,1.015,1.015,0,0,1,.049.229c.027.177.06.4.1.681.088.6.188,1.486.264,2.633a45.5,45.5,0,0,1-.392,9.72A47.384,47.384,0,0,1-80.253-50.8c-.355,1.157-.758,2.347-1.222,3.548A22.907,22.907,0,0,0-82.664-43.5a7.114,7.114,0,0,0,.273,4,10.311,10.311,0,0,0,2.351,3.52,30.741,30.741,0,0,0,3.38,2.927,22.787,22.787,0,0,0,3.821,2.537,7.131,7.131,0,0,0,4.364.785,20.669,20.669,0,0,0,4.2-1.45,8.518,8.518,0,0,1,4.329-.765,8.726,8.726,0,0,1,3.889,1.641c2.226,1.621,3.927,3.591,5.819,5.06a11.3,11.3,0,0,0,6.02,2.522A12.685,12.685,0,0,0-38.8-23.3a12.691,12.691,0,0,0,3.672-1.891,14.556,14.556,0,0,0,2.484-2.519" transform="translate(83.221 70.631)" fill="#1a2e35"/>
        </g>
        <g id="g684" transform="translate(306.554 87.282)">
          <path id="path686" d="M-1.3-41.571a8.2,8.2,0,0,1-.651-.893A9.2,9.2,0,0,1-3.1-45.417a12.072,12.072,0,0,1,.08-5.007,15.263,15.263,0,0,1,2.8-6.008A28.049,28.049,0,0,1,5.63-61.964c2.325-1.73,4.966-3.341,7.6-5.22A27.843,27.843,0,0,0,20.44-74.19a17.919,17.919,0,0,0,2.186-4.836c.523-1.735.879-3.549,1.3-5.378a28.46,28.46,0,0,1,1.638-5.336,12.032,12.032,0,0,1,3.184-4.4,13.469,13.469,0,0,1,4.6-2.529,21.075,21.075,0,0,1,4.926-.975,56.1,56.1,0,0,1,9.233.293,43.238,43.238,0,0,0,7.991.1,17.006,17.006,0,0,0,6.261-1.866,12.516,12.516,0,0,0,3.837-3.094,9.462,9.462,0,0,0,1.552-2.713c.23-.68.314-1.052.337-1.047a7.967,7.967,0,0,1-.258,1.074,9.051,9.051,0,0,1-1.5,2.787,12.506,12.506,0,0,1-3.853,3.2,17.1,17.1,0,0,1-6.341,1.954A42.842,42.842,0,0,1,47.476-97a56.529,56.529,0,0,0-9.172-.254,20.78,20.78,0,0,0-4.832.969,13.122,13.122,0,0,0-4.455,2.46,11.649,11.649,0,0,0-3.07,4.26,28.112,28.112,0,0,0-1.61,5.258c-.418,1.821-.777,3.645-1.309,5.405a18.335,18.335,0,0,1-2.242,4.942,28.1,28.1,0,0,1-7.33,7.1c-2.658,1.883-5.3,3.478-7.619,5.186A27.982,27.982,0,0,0,.02-56.251a15.118,15.118,0,0,0-2.812,5.879,12.08,12.08,0,0,0-.149,4.924A10.129,10.129,0,0,0-1.3-41.571" transform="translate(3.326 105.968)" fill="#375a64"/>
        </g>
        <g id="g688" transform="translate(305.901 101.817)">
          <path id="path690" d="M-3.258-34.935a17.962,17.962,0,0,1-2.491-2.386,11.374,11.374,0,0,1-2.163-3.431,5.635,5.635,0,0,1-.369-2.532,5.052,5.052,0,0,1,1.093-2.656,9.928,9.928,0,0,1,5.761-2.951c1.147-.241,2.338-.426,3.534-.72A10.246,10.246,0,0,0,5.56-51.048a8.4,8.4,0,0,0,2.511-2.978,27.069,27.069,0,0,0,1.553-3.865,27.6,27.6,0,0,1,1.652-4.057,8.611,8.611,0,0,1,3.042-3.363,15.028,15.028,0,0,1,4.219-1.646c1.433-.369,2.852-.671,4.189-1.125a13.558,13.558,0,0,0,6.436-4.739,49.474,49.474,0,0,0,3.992-6.243,35.24,35.24,0,0,1,3.638-5.4,13.858,13.858,0,0,1,4.16-3.393,10.539,10.539,0,0,1,3.882-1.171,7.366,7.366,0,0,1,2.555.209,5.012,5.012,0,0,1,.843.295c-.007.023-.3-.085-.863-.212a7.723,7.723,0,0,0-2.518-.128,10.547,10.547,0,0,0-3.788,1.216,13.761,13.761,0,0,0-4.043,3.378,35.506,35.506,0,0,0-3.562,5.377,48.856,48.856,0,0,1-3.991,6.311,16.818,16.818,0,0,1-2.859,2.89,12.231,12.231,0,0,1-3.748,2c-1.368.467-2.8.771-4.216,1.139a14.7,14.7,0,0,0-4.1,1.6,8.194,8.194,0,0,0-2.9,3.206,27.332,27.332,0,0,0-1.63,3.993,27.473,27.473,0,0,1-1.588,3.918,8.771,8.771,0,0,1-2.646,3.108,10.573,10.573,0,0,1-3.587,1.477c-1.219.292-2.415.471-3.551.7a9.662,9.662,0,0,0-5.6,2.8,4.789,4.789,0,0,0-1.058,2.5,5.438,5.438,0,0,0,.324,2.424,11.472,11.472,0,0,0,2.066,3.4c.711.845,1.322,1.453,1.738,1.861l.476.464a.962.962,0,0,1,.153.168" transform="translate(8.306 89.052)" fill="#375a64"/>
        </g>
        <g id="g692" transform="translate(398.296 103.591)">
          <path id="path694" d="M-8,0a2.578,2.578,0,0,1-.417.627c-.292.386-.726.933-1.28,1.6C-10.8,3.549-12.391,5.335-14.251,7.2a8.269,8.269,0,0,1-2.985,2.3,2.6,2.6,0,0,1-1.71-.019,2.162,2.162,0,0,1-1.1-1.008,3.329,3.329,0,0,1-.3-2.061,1.955,1.955,0,0,1,.192-.732,3.99,3.99,0,0,1-.028.748,3.388,3.388,0,0,0,.4,1.9,1.88,1.88,0,0,0,.965.83,2.276,2.276,0,0,0,1.467-.025,8.322,8.322,0,0,0,2.8-2.227C-12.7,5.045-11.083,3.3-9.922,2.026A21.807,21.807,0,0,1-8,0" transform="translate(20.394 0.002)" fill="#ff9a6c"/>
        </g>
        <g id="g696" transform="translate(405.836 103.595)">
          <path id="path698" d="M-7.129,0a2.9,2.9,0,0,1-.488.632c-.334.387-.826.939-1.442,1.614L-11.238,4.6l-1.3,1.382a10.919,10.919,0,0,1-1.521,1.405,3.852,3.852,0,0,1-1.975.782,2.039,2.039,0,0,1-1.84-.8,1.557,1.557,0,0,1-.3-.941,1.838,1.838,0,0,1,.276-.869c.3-.483.607-.858.873-1.235.541-.736.985-1.328,1.3-1.732a2.979,2.979,0,0,1,.523-.6,2.926,2.926,0,0,1-.389.7c-.273.432-.68,1.05-1.19,1.809-.246.379-.558.794-.812,1.234a1.221,1.221,0,0,0,.034,1.411,1.646,1.646,0,0,0,1.5.617A3.489,3.489,0,0,0-14.3,7.048,11.133,11.133,0,0,0-12.834,5.7l1.314-1.365c.825-.843,1.579-1.616,2.245-2.3C-8.631,1.391-8.105.871-7.735.518A2.9,2.9,0,0,1-7.129,0" transform="translate(18.172 0.002)" fill="#ff9a6c"/>
        </g>
      </g>
    </g>
    <g id="g700" transform="translate(353.75 100)">
      <g id="g702" clip-path="url(#clip-path-7)">
        <g id="g708" transform="translate(501.483 345.676)">
          <path id="path710" d="M0-3.86A10.446,10.446,0,0,1,7.579-9.7a10.444,10.444,0,0,1,9.1,2.947A13.307,13.307,0,0,1,9.221-1.017,8.1,8.1,0,0,1,0-3.86" transform="translate(0 9.839)" fill="#d5dbea"/>
        </g>
        <g id="g712" transform="translate(495.725 350.091)">
          <path id="path714" d="M0-1.868a10.211,10.211,0,0,1,2.33-.726c1.464-.357,3.5-.758,5.768-1.131s4.323-.653,5.816-.829a13.317,13.317,0,0,1,2.429-.188,14.808,14.808,0,0,1-2.387.483l-5.79.95c-2.259.373-4.3.725-5.773,1.006A21.881,21.881,0,0,1,0-1.868" transform="translate(0 4.761)" fill="#1a2e35"/>
        </g>
        <g id="g716" transform="translate(207.079 300.359)">
          <path id="path718" d="M-3.093,0A13.746,13.746,0,0,1,1.751,11.867,13.747,13.747,0,0,1-5.511,22.431C-8.485,14.808-9.629,6.6-3.093,0" transform="translate(7.885)" fill="#d5dbea"/>
        </g>
        <g id="g720" transform="translate(223.141 305.949)">
          <path id="path722" d="M0-.165A17.785,17.785,0,0,0,8.659,13.984a17.783,17.783,0,0,0,16.58.528C19.574,5.567,11.895-1.915,0-.165" transform="translate(0 0.421)" fill="#d5dbea"/>
        </g>
        <g id="g724" transform="translate(197.318 278.027)">
          <path id="path726" d="M0,0A2.535,2.535,0,0,1,.375.4L1.387,1.611C2.251,2.67,3.505,4.2,5.092,6.06c3.161,3.729,7.627,8.8,12.882,14.091,2.637,2.638,5.219,5.077,7.624,7.234,2.423,2.137,4.663,3.991,6.606,5.47a50.129,50.129,0,0,0,4.773,3.25c1.172.7,1.875.984,1.854,1.031a2.665,2.665,0,0,1-.513-.2,12.77,12.77,0,0,1-1.421-.69A43.006,43.006,0,0,1,32.025,33.1c-1.974-1.454-4.242-3.292-6.686-5.418-2.425-2.146-5.024-4.583-7.665-7.228-5.267-5.3-9.706-10.414-12.812-14.2C3.3,4.365,2.084,2.8,1.258,1.713L.308.455A2.75,2.75,0,0,1,0,0" transform="translate(0.001 0.001)" fill="#1a2e35"/>
        </g>
        <g id="g728" transform="translate(209.141 291.799)">
          <path id="path730" d="M-1.355-12.965c-.071-.017.2-1.141.429-2.983a32.269,32.269,0,0,0,.079-7.221,32.336,32.336,0,0,0-1.567-7.052c-.606-1.753-1.1-2.8-1.036-2.829a3.027,3.027,0,0,1,.414.7,19.72,19.72,0,0,1,.9,2.026,27.912,27.912,0,0,1,1.706,7.11,27.936,27.936,0,0,1-.2,7.308,19.6,19.6,0,0,1-.464,2.168,3.037,3.037,0,0,1-.261.771" transform="translate(3.455 33.05)" fill="#1a2e35"/>
        </g>
        <g id="g732" transform="translate(566.769 131.851)">
          <path id="path734" d="M-1.327-10.363A10.443,10.443,0,0,1-2.869-19.8a10.444,10.444,0,0,1,6.91-6.614,13.305,13.305,0,0,1,1.507,9.285,8.1,8.1,0,0,1-6.874,6.769" transform="translate(3.382 26.417)" fill="#d5dbea"/>
        </g>
        <g id="g736" transform="translate(567.253 137.854)">
          <path id="path738" d="M-.007-10.168a10.347,10.347,0,0,1,.466-2.4c.38-1.458,1-3.444,1.74-5.614s1.475-4.115,2.029-5.513a13.145,13.145,0,0,1,.987-2.227,14.621,14.621,0,0,1-.707,2.33C3.976-22.043,3.321-20.142,2.6-18.04c-.744,2.166-1.4,4.131-1.851,5.56a21.863,21.863,0,0,1-.754,2.313" transform="translate(0.018 25.918)" fill="#1a2e35"/>
        </g>
        <g id="g740" transform="translate(532.455 183.177)">
          <path id="path742" d="M-.425-16.148A20.2,20.2,0,0,1,3.635-34.2,20.2,20.2,0,0,1,20.812-41.06c1.125,6.129-.775,12.417-4.01,17.742C12.989-17.04,5.4-14.379-.425-16.148" transform="translate(1.082 41.163)" fill="#e62e38"/>
        </g>
        <g id="g744" transform="translate(509.182 193.342)">
          <path id="path746" d="M0-25.066A2.671,2.671,0,0,1,.343-25.5c.269-.3.617-.7,1.049-1.19.929-1.019,2.287-2.477,3.987-4.26,3.4-3.566,8.146-8.437,13.428-13.782S28.9-54.89,32.4-58.354l4.163-4.085,1.147-1.095a2.726,2.726,0,0,1,.421-.361,2.788,2.788,0,0,1-.361.421l-1.091,1.151-4.068,4.179L19.107-44.436,5.594-30.744,1.512-26.579.406-25.444A2.767,2.767,0,0,1,0-25.066" transform="translate(0.001 63.896)" fill="#1a2e35"/>
        </g>
        <g id="g748" transform="translate(532.455 183.177)">
          <g id="g762">
            <g id="g760" opacity="0.3" clip-path="url(#clip-path-8)">
              <g id="g758" transform="translate(0 0)">
                <path id="path756" d="M-.425-16.148A20.2,20.2,0,0,1,3.635-34.2,20.2,20.2,0,0,1,20.812-41.06c1.125,6.129-.775,12.417-4.01,17.742C12.989-17.04,5.4-14.379-.425-16.148" transform="translate(1.082 41.163)"/>
              </g>
            </g>
          </g>
        </g>
        <g id="g764" transform="translate(515.437 190.664)">
          <path id="path766" d="M-4.266-12.868a12.4,12.4,0,0,1-6.516-9.3A12.406,12.406,0,0,1-6.8-32.8,15.8,15.8,0,0,1-.4-23.651,9.61,9.61,0,0,1-4.266-12.868" transform="translate(10.874 32.803)" fill="#e62e38"/>
        </g>
        <g id="g768" transform="translate(515.437 190.665)">
          <g id="g782">
            <g id="g780" opacity="0.3" clip-path="url(#clip-path-9)">
              <g id="g778" transform="translate(0 0)">
                <path id="path776" d="M-4.266-12.868a12.4,12.4,0,0,1-6.516-9.3A12.406,12.406,0,0,1-6.8-32.8,15.8,15.8,0,0,1-.4-23.651,9.61,9.61,0,0,1-4.266-12.868" transform="translate(10.874 32.803)"/>
              </g>
            </g>
          </g>
        </g>
        <g id="g784" transform="translate(520.755 197.964)">
          <path id="path786" d="M-1.653-12.61a2.741,2.741,0,0,1-.25-.738c-.135-.483-.291-1.19-.459-2.068-.339-1.755-.7-4.2-1.023-6.9s-.548-5.16-.683-6.939a18.506,18.506,0,0,1-.121-2.888,20.867,20.867,0,0,1,.417,2.859c.22,1.885.5,4.274.806,6.918.321,2.7.635,5.14.9,6.9s.476,2.839.415,2.855" transform="translate(4.213 32.143)" fill="#1a2e35"/>
        </g>
        <g id="g788" transform="translate(370.323 292.834)">
          <path id="path790" d="M0-7.537A19.532,19.532,0,0,1,14.221-18.918,19.533,19.533,0,0,1,31.54-13.278C22.352-6.155,11.631-1.291,0-7.537" transform="translate(0 19.212)" fill="#e62e38"/>
        </g>
        <g id="g792" transform="translate(370.323 292.834)">
          <g id="g806">
            <g id="g804" opacity="0.3" clip-path="url(#clip-path-10)">
              <g id="g802" transform="translate(0 0)">
                <path id="path800" d="M0-7.537A19.532,19.532,0,0,1,14.221-18.918,19.533,19.533,0,0,1,31.54-13.278C22.352-6.155,11.631-1.291,0-7.537" transform="translate(0 19.212)"/>
              </g>
            </g>
          </g>
        </g>
        <g id="g808" transform="translate(365.132 300.082)">
          <path id="path810" d="M0-4.7a3.851,3.851,0,0,1,.729-.567c.482-.347,1.208-.81,2.125-1.347a40.419,40.419,0,0,1,15.68-5.172c1.057-.115,1.915-.173,2.509-.182a3.829,3.829,0,0,1,.924.023c0,.071-1.305.152-3.394.455A46.8,46.8,0,0,0,3-6.349C1.14-5.35.038-4.637,0-4.7" transform="translate(0.001 11.971)" fill="#1a2e35"/>
        </g>
        <g id="g812" transform="translate(156.732 197.575)">
          <path id="path814" d="M0-.874a15.078,15.078,0,0,1,14.039.818,15.079,15.079,0,0,1,7.023,12.184C12.11,11.467,3.446,8.718,0-.874" transform="translate(0 2.229)" fill="#e62e38"/>
        </g>
        <g id="g816" transform="translate(156.731 197.575)">
          <g id="g830">
            <g id="g828" opacity="0.3" clip-path="url(#clip-path-11)">
              <g id="g826" transform="translate(0 0)">
                <path id="path824" d="M0-.874a15.078,15.078,0,0,1,14.039.818,15.079,15.079,0,0,1,7.023,12.184C12.11,11.467,3.446,8.718,0-.874" transform="translate(0 2.229)"/>
              </g>
            </g>
          </g>
        </g>
        <g id="g832" transform="translate(152.283 197.866)">
          <path id="path834" d="M0-.01A2.339,2.339,0,0,1,.715.023c.457.045,1.114.148,1.92.31a30.609,30.609,0,0,1,6.11,1.954,30.646,30.646,0,0,1,5.571,3.186c.663.484,1.183.9,1.525,1.2s.526.482.507.5c-.043.053-.843-.566-2.2-1.465a38.34,38.34,0,0,0-5.57-3.044A38.387,38.387,0,0,0,2.568.625C.988.229-.01.057,0-.01" transform="translate(0 0.025)" fill="#1a2e35"/>
        </g>
        <g id="g836" transform="translate(446.984 279.763)">
          <path id="path838" d="M-.058-9.565a13.49,13.49,0,0,1,4.6-11.71,13.491,13.491,0,0,1,12.314-2.582C13.805-16.428,9.057-9.825-.058-9.565" transform="translate(0.149 24.381)" fill="#d5dbea"/>
        </g>
        <g id="g840" transform="translate(444.941 286.169)">
          <path id="path842" d="M0-7.683A9.512,9.512,0,0,1,1.009-9.835a27.106,27.106,0,0,1,7.624-8.506,9.615,9.615,0,0,1,2.029-1.241A21.363,21.363,0,0,1,8.814-18.1a34.836,34.836,0,0,0-4.132,3.89A34.834,34.834,0,0,0,1.265-9.682,21.665,21.665,0,0,1,0-7.683" transform="translate(0.006 19.584)" fill="#1a2e35"/>
        </g>
        <g id="g844" transform="translate(510.228 235.212)">
          <path id="path846" d="M-.392-11.154A13.49,13.49,0,0,1,1.926-23.521a13.491,13.491,0,0,1,11.609-4.85C11.934-20.5,8.512-13.125-.392-11.154" transform="translate(0.998 28.432)" fill="#e62e38"/>
        </g>
        <g id="g848" transform="translate(510.228 235.211)">
          <g id="g862">
            <g id="g860" opacity="0.3" clip-path="url(#clip-path-12)">
              <g id="g858" transform="translate(0 0)">
                <path id="path856" d="M-.392-11.154A13.49,13.49,0,0,1,1.926-23.521a13.491,13.491,0,0,1,11.609-4.85C11.934-20.5,8.512-13.125-.392-11.154" transform="translate(0.998 28.432)"/>
              </g>
            </g>
          </g>
        </g>
        <g id="g864" transform="translate(509.392 242.626)">
          <path id="path866" d="M-.005-8.839a9.5,9.5,0,0,1,.59-2.3,27.1,27.1,0,0,1,2.422-5.208,27.113,27.113,0,0,1,3.466-4.58,9.5,9.5,0,0,1,1.76-1.6,21.628,21.628,0,0,1-1.537,1.8,34.911,34.911,0,0,0-3.327,4.6,34.8,34.8,0,0,0-2.5,5.093,21.649,21.649,0,0,1-.869,2.2" transform="translate(0.013 22.532)" fill="#1a2e35"/>
        </g>
        <g id="g868" transform="translate(30.209 184.199)">
          <path id="path870" d="M0-6.68a13.491,13.491,0,0,1,8.233-9.514,13.492,13.492,0,0,1,12.472,1.659C15.357-8.543,8.684-3.895,0-6.68" transform="translate(0 17.028)" fill="#d5dbea"/>
        </g>
        <g id="g872" transform="translate(27.039 189.445)">
          <path id="path874" d="M0-4.961a9.486,9.486,0,0,1,1.67-1.693,27.092,27.092,0,0,1,10.018-5.488,9.554,9.554,0,0,1,2.325-.5,21.7,21.7,0,0,1-2.234.779,33.581,33.581,0,0,0-9.92,5.433A21.51,21.51,0,0,1,0-4.961" transform="translate(0.002 12.647)" fill="#1f1f1f"/>
        </g>
      </g>
    </g>
    <g id="g876" transform="translate(353.75 100)">
      <g id="g878" clip-path="url(#clip-path)">
        <g id="g884" transform="translate(400.575 29.231)">
          <path id="path886" d="M0-38.458,6.512-50.2A31.077,31.077,0,0,1,1.731-66.5,31.229,31.229,0,0,1,32.658-98.031,31.227,31.227,0,0,1,64.184-67.1,31.227,31.227,0,0,1,33.257-35.578a31.082,31.082,0,0,1-19.173-6.356l.011.014Z" transform="translate(0 98.033)" fill="#fff"/>
        </g>
        <g id="g888" transform="translate(400.575 29.062)">
          <path id="path890" d="M0-38.567l14.069-3.564-.058.167L14-41.978l-.494-.629.642.48a31.981,31.981,0,0,0,6.436,3.747,31.2,31.2,0,0,0,8.526,2.306,27.878,27.878,0,0,0,4.9.183c.842-.059,1.7-.091,2.563-.173l2.607-.428a31.361,31.361,0,0,0,10.363-4.217,31.307,31.307,0,0,0,8.8-8.4A30.806,30.806,0,0,0,63.429-61.09a31.476,31.476,0,0,0-.506-13.719,30.462,30.462,0,0,0-6.734-12.617L54.915-88.8c-.417-.462-.915-.841-1.368-1.264-.474-.4-.9-.854-1.409-1.207l-1.491-1.093a13.017,13.017,0,0,0-1.542-1L47.532-94.3l-1.645-.779a14.152,14.152,0,0,0-1.66-.72,31.513,31.513,0,0,0-13.846-2,30.482,30.482,0,0,0-12.665,3.857,31.435,31.435,0,0,0-9.333,8.1,31.477,31.477,0,0,0-5.2,10.059A33.568,33.568,0,0,0,1.9-65.715,31.033,31.033,0,0,0,6.6-50.359l.032.051-.029.052L0-38.567,6.424-50.354l0,.1A31.1,31.1,0,0,1,1.609-65.7,33.783,33.783,0,0,1,2.868-75.882,31.761,31.761,0,0,1,8.1-86.068a31.752,31.752,0,0,1,9.428-8.212,30.841,30.841,0,0,1,12.822-3.925,31.888,31.888,0,0,1,14.031,2.018,14.587,14.587,0,0,1,1.683.728l1.668.79,1.6.948a13.333,13.333,0,0,1,1.563,1.012L52.4-91.6c.515.357.95.818,1.429,1.223.459.429.963.814,1.387,1.282L56.5-87.705a30.832,30.832,0,0,1,6.823,12.79,31.857,31.857,0,0,1,.5,13.9,31.158,31.158,0,0,1-5.167,12.125A31.613,31.613,0,0,1,49.743-40.4a31.644,31.644,0,0,1-10.492,4.235l-2.637.424c-.873.082-1.74.111-2.59.167a28.216,28.216,0,0,1-4.95-.2,31.381,31.381,0,0,1-8.592-2.366,31.959,31.959,0,0,1-6.461-3.815l.146-.148.011.014.1.13-.158.037L0-38.567" transform="translate(0 98.311)" fill="#1a2e35"/>
        </g>
        <g id="g892" transform="translate(424.87 47.445)">
          <path id="path894" d="M0-4.946l4.063-.039A3.452,3.452,0,0,1,7.573-8.491a3.286,3.286,0,0,1,3.2,2.067,3.638,3.638,0,0,1-.258,3.293C9.84-1.988,8.34-.941,5.6-1.4l.088,9.161L9.7,7.725,9.651,2.359a7.846,7.846,0,0,0,5.56-7.72c-.057-5.94-5.4-7.269-7.678-7.247-1.745.016-7.681.5-7.535,7.662" transform="translate(0.004 12.608)" fill="#e62e38"/>
        </g>
        <g id="g896" transform="translate(430.567 69.665)">
          <path id="path898" d="M-2.655-2.458l-4.076.039-.036-3.807,4.076-.039Z" transform="translate(6.768 6.265)" fill="#e62e38"/>
        </g>
      </g>
    </g>
  </g>
</svg>
